<?xml version="1.0" standalone="no"?>
<!DOCTYPE svg PUBLIC "-//W3C//DTD SVG 20010904//EN"
 "http://www.w3.org/TR/2001/REC-SVG-20010904/DTD/svg10.dtd">
<svg version="1.0" xmlns="http://www.w3.org/2000/svg"
 width="286.000000pt" height="176.000000pt" viewBox="0 0 286.000000 176.000000"
 preserveAspectRatio="xMidYMid meet">
<metadata>
Created by potrace 1.16, written by Peter Selinger 2001-2019
</metadata>
<g transform="translate(0.000000,176.000000) scale(0.100000,-0.100000)"
fill="#000000" stroke="none">
<path d="M0 880 l0 -880 1430 0 1430 0 0 880 0 880 -1430 0 -1430 0 0 -880z
m1280 520 l0 -40 160 0 160 0 0 40 0 40 200 0 200 0 0 -40 0 -40 80 0 80 0 0
-40 0 -40 40 0 40 0 0 -67 c0 -65 0 -66 -20 -48 -11 10 -20 24 -20 32 0 7 -4
13 -9 13 -5 0 -13 10 -16 21 -6 19 -16 12 -96 -67 -62 -61 -88 -95 -85 -106 4
-16 -5 -18 -75 -18 l-79 0 0 40 0 40 -80 0 -80 0 0 -40 0 -40 -40 0 -40 0 0
-160 0 -160 40 0 c38 0 40 -1 40 -32 0 -25 -3 -29 -12 -20 -7 7 -18 12 -26 12
-8 0 -21 8 -28 18 -11 14 -13 14 -14 2 0 -9 -38 -53 -84 -99 -71 -71 -83 -87
-75 -103 5 -10 14 -18 20 -18 6 0 24 -13 39 -30 15 -16 35 -30 44 -30 9 0 16
-4 16 -10 0 -6 -53 -10 -140 -10 l-140 0 0 -40 0 -40 -200 0 -200 0 0 40 0 40
-80 0 -80 0 0 40 0 40 -40 0 -40 0 0 40 0 40 -40 0 -40 0 0 91 c0 57 4 88 10
84 6 -3 10 -17 10 -31 0 -13 5 -24 10 -24 6 0 10 -9 10 -20 0 -11 5 -20 10
-20 6 0 10 -8 10 -18 0 -9 9 -23 20 -30 11 -7 20 -19 20 -27 0 -13 44 -65 55
-65 3 0 5 7 5 15 0 9 36 52 80 96 44 44 80 83 80 87 0 15 -25 62 -32 62 -5 0
-8 9 -8 20 0 11 -4 20 -10 20 -14 0 -12 141 3 173 6 15 15 27 20 27 4 0 7 7 7
15 0 8 5 23 11 33 10 16 0 30 -70 98 -56 56 -81 88 -81 104 0 23 -1 23 -30
-10 -16 -19 -29 -40 -30 -45 0 -6 -9 -17 -20 -25 -11 -8 -20 -22 -20 -32 0
-10 -4 -18 -10 -18 -5 0 -10 -9 -10 -20 0 -11 -4 -20 -10 -20 -5 0 -10 -11
-10 -24 0 -14 -4 -28 -10 -31 -6 -4 -10 27 -10 84 l0 91 40 0 40 0 0 40 0 40
40 0 40 0 0 40 0 40 80 0 80 0 0 40 0 40 200 0 200 0 0 -40z m1040 -520 l0
-240 -30 0 c-23 0 -30 4 -30 20 0 11 5 20 10 20 6 0 10 14 10 30 0 17 5 30 10
30 6 0 10 53 10 140 0 87 -4 140 -10 140 -5 0 -10 14 -10 30 0 17 -4 30 -9 30
-5 0 -11 9 -14 20 -4 17 0 20 29 20 l34 0 0 -240z m-300 100 c0 -11 5 -20 10
-20 6 0 10 -33 10 -80 0 -47 -4 -80 -10 -80 -5 0 -10 -9 -10 -20 0 -11 -4 -20
-10 -20 -6 0 -10 47 -10 120 0 73 4 120 10 120 6 0 10 -9 10 -20z m-40 -265
c0 -13 -50 -55 -65 -55 -8 0 -15 -4 -15 -10 0 -5 -13 -10 -30 -10 -28 0 -30 2
-30 40 l0 40 70 0 c39 0 70 -2 70 -5z m-165 -85 c-3 -5 -17 -10 -31 -10 -13 0
-24 5 -24 10 0 6 14 10 31 10 17 0 28 -4 24 -10z m425 -85 l0 -65 -40 0 -40 0
0 -40 0 -40 -70 0 c-40 0 -70 4 -70 10 0 6 8 10 18 10 9 0 28 14 41 30 13 17
29 30 37 30 18 0 84 62 84 79 0 13 27 51 37 51 1 0 3 -29 3 -65z m-620 -155
c0 -5 15 -10 34 -10 19 0 38 -4 41 -10 3 -5 46 -10 96 -10 53 0 89 4 89 10 0
6 18 10 40 10 22 0 40 5 40 10 0 6 9 10 20 10 17 0 20 -7 20 -40 l0 -40 -200
0 -200 0 0 40 c0 22 5 40 10 40 6 0 10 -4 10 -10z"/>
<path d="M960 1080 l0 -40 -40 0 -40 0 0 -160 0 -160 40 0 40 0 0 -40 0 -40
80 0 80 0 0 40 0 40 80 0 80 0 0 160 0 160 -80 0 -80 0 0 40 0 40 -80 0 -80 0
0 -40z"/>
</g>
</svg>
