<?xml version="1.0" standalone="yes"?>
<svg xmlns="http://www.w3.org/2000/svg" width="225" height="225">
<path style="fill:#f8f9f8; stroke:none;" d="M0 0L0 225L225 225L225 0L0 0z"/>
<path style="fill:#eddd3d; stroke:none;" d="M100.667 1.33333L101.333 1.66667L100.667 1.33333z"/>
<path style="fill:#6e716f; stroke:none;" d="M102 1.42438C83.4157 3.89441 65.6763 9.09976 50 19.7461C37.7837 28.0427 27.1944 38.6489 19.0787 51C-16.2654 104.789 2.67447 179.773 59 210.688C80.5448 222.514 105.86 226.139 130 222.715C144.57 220.648 158.467 215.16 171 207.6C253.281 157.962 233.964 28.4505 141 4.62962C128.522 1.43234 114.85 -0.283524 102 1.42438z"/>
<path style="fill:#eddd3d; stroke:none;" d="M123.667 1.33333L124.333 1.66667L123.667 1.33333M93 2L94 3L93 2M131 2L132 3L131 2M88 3L89 4L88 3M98 3L99 4L98 3z"/>
<path style="fill:#f8f9f8; stroke:none;" d="M51 50L52 50L60 43L60 42L52 31L89 13L92 28L112 25L112 3C90.6926 3 69.8852 8.65027 52 20.5162C48.2362 23.0133 37.2068 28.8951 37.2068 34.0394C37.2068 39.3777 47.4666 46.4666 51 50M113 3L113 25C136.875 29.4324 153.622 34.2731 173 50C177.062 47.1389 187.793 39.4927 187.793 34.0394C187.793 28.8951 176.764 23.0133 173 20.5162C155.115 8.65027 134.307 3 113 3z"/>
<path style="fill:#eddd3d; stroke:none;" d="M126 3L127 4L126 3M136 3L137 4L136 3M84 4L85 5L84 4M91 4L92 5L91 4M133 4L134 5L133 4M140 4L141 5L140 4M80 5L81 6L80 5M87 5L88 6L87 5M137 5L138 6L137 5M144 5L145 6L144 5M77 6L78 7L77 6M83 6L84 7L83 6M141 6L142 7L141 6M147 6L148 7L147 6M74 7L75 8L74 7M150 7L151 8L150 7M69 9L70 10L69 9M155 9L156 10L155 9M71 10L72 11L71 10M153 10L154 11L153 10M55 16L56 17L55 16z"/>
<path style="fill:#f28235; stroke:none;" d="M54 32L109 107L110 107L88 16C76.6747 18.0188 63.9064 26.218 54 32z"/>
<path style="fill:#eddd3d; stroke:none;" d="M169 16L170 17L169 16M55 18L56 19L55 18M169 18L170 19L169 18M46 22L47 23L46 22M49 22L50 23L49 22M175 22L176 23L175 22M178 22L179 23L178 22M42 25L43 26L42 25M109.667 25.3333L110.333 25.6667L109.667 25.3333M114.667 25.3333L115.333 25.6667L114.667 25.3333M182 25L183 26L182 25M99 26L100 27L99 26M125 26L126 27L125 26M104.667 27.3333L105.333 27.6667L104.667 27.3333z"/>
<path style="fill:#f8f9f8; stroke:none;" d="M93 29L98 52L112 50C112 45.3977 114.36 31.028 110.397 28.0424C106.874 25.3891 97.1825 28.6699 93 29z"/>
<path style="fill:#eddd3d; stroke:none;" d="M111 27L112 28L111 27M113 27L114 28L113 27z"/>
<path style="fill:#f8f9f8; stroke:none;" d="M113 50L131 53L135 41L152 50L147 61C159.038 68.9193 162.878 61.1221 172 52C162.788 39.4861 144.832 32.01 130 29.0039C126.449 28.2841 117.733 25.6853 114.603 28.0424C110.64 31.028 113 45.3977 113 50z"/>
<path style="fill:#eddd3d; stroke:none;" d="M119.667 27.3333L120.333 27.6667L119.667 27.3333M97 28L98 29L97 28M127 28L128 29L127 28M135 28L136 29L135 28M40 29L41 30L40 29M132 29L133 30L132 29M138 29L139 30L138 29M184 29L185 30L184 29M141 30L142 31L141 30M139 31L140 32L139 31M144 31L145 32L144 31M54 35L55 36L54 35z"/>
<path style="fill:#f8f9f8; stroke:none;" d="M3 112L25 112C29.4175 88.2054 34.3407 71.2946 50 52C47.1389 47.9384 39.4927 37.2068 34.0394 37.2068C28.8951 37.2068 23.0133 48.2362 20.5162 52C8.67742 69.8442 3 90.7319 3 112M175 51L175 52C190.659 71.2946 195.582 88.2054 200 112L222 112C222 90.7319 216.323 69.8442 204.484 52C201.987 48.2362 196.105 37.2068 190.961 37.2068C185.622 37.2068 178.533 47.4666 175 51z"/>
<path style="fill:#eddd3d; stroke:none;" d="M156 37L157 38L156 37M57 39L58 40L57 39M156 39L157 40L156 39M29 40L30 41L29 40M195 40L196 41L195 40M25 42L26 43L25 42M199 42L200 43L199 42M59 43L60 44L59 43M139 43L140 44L139 43M165 43L166 44L165 43M135 44L116 105L117 105L150 51L135 44z"/>
<path style="fill:#f8f9f8; stroke:none;" d="M53 51L53 52C55.7922 54.7922 69.1207 71.7172 72.8279 63.6512C75.0259 58.8691 64.6493 48.6881 62 45L53 51z"/>
<path style="fill:#eddd3d; stroke:none;" d="M22 46L23 47L22 46M58 46L59 47L58 46M166 46L167 47L166 46M202 46L203 47L202 46M53 48L54 49L53 48M132 48L133 49L132 48M148 48L149 49L148 48M171 48L172 49L171 48M22 49L23 50L22 49M52 49L53 50L52 49M172 49L173 50L172 49M202 49L203 50L202 49M105 50L106 51L105 50M119 50L120 51L119 50M99 51L100 52L99 51M125 51L126 52L125 51M131 51L132 52L131 51M49 52L50 53L49 52M103 52L104 53L103 52z"/>
<path style="fill:#f8f9f8; stroke:none;" d="M99 53C99.2881 56.5272 103.647 82.6467 110.972 73.3966C114.249 69.2585 112 57.1319 112 52L99 53M113 52C113 64.3246 109.563 74.1738 124 76L130 54L113 52z"/>
<path style="fill:#eddd3d; stroke:none;" d="M121 52L122 53L121 52M129 52L130 53L129 52M175 52L176 53L175 52M48 53L49 54L48 53z"/>
<path style="fill:#f8f9f8; stroke:none;" d="M51 53C41.8897 62.898 35.1688 74.2099 31 87L53 94C55.3051 87.2304 66.3228 75.2797 65.8827 69C65.4848 63.3221 55.3076 56.0343 51 53z"/>
<path style="fill:#eddd3d; stroke:none;" d="M126 53L127 54L126 53M150 53L151 54L150 53z"/>
<path style="fill:#f8f9f8; stroke:none;" d="M173 53C169.241 56.7587 159.51 63.3962 159.117 69C158.804 73.4662 165.172 79.1507 167.218 83C171.979 91.9575 174.79 101.831 175 112C179.511 112 194.076 114.35 196.933 110.397C199.161 107.314 196.702 98.4863 195.996 95C192.991 80.168 185.513 62.2111 173 53z"/>
<path style="fill:#eddd3d; stroke:none;" d="M176 53L177 54L176 53M16 55L17 56L16 55M18 55L19 56L18 55M206 55L207 56L206 55M208 55L209 56L208 55M129 57L130 58L129 57M46 58L47 59L46 58M71 58L72 59L71 58M147 58L148 59L147 58M178 58L179 59L178 58M43 59L44 60L43 59M181 59L182 60L181 59M128 60L129 61L128 60M148 61L149 62L148 61M74 62L75 63L74 62z"/>
<path style="fill:#f8f9f8; stroke:none;" d="M145 62L134 82L138 85C146.257 79.1834 160.179 67.8854 145 62z"/>
<path style="fill:#eddd3d; stroke:none;" d="M127 63L128 64L127 63z"/>
<path style="fill:#f8f9f8; stroke:none;" d="M75 64C68.3486 72.1788 80.2957 79.2957 86 85L87 85C89.289 78.1602 79.9519 68.3954 75 64z"/>
<path style="fill:#eddd3d; stroke:none;" d="M71 65L72 66L71 65M153 65L154 66L153 65M77 66L78 67L77 66M126 66L127 67L126 66M37 68L38 69L37 68M39 68L40 69L39 68M185 68L186 69L185 68M187 68L188 69L187 68M9 69L10 70L9 69M125 69L126 70L125 69M140 69L141 70L140 69M215 69L216 70L215 69M10 71L11 72L10 71M65 71L66 72L65 71z"/>
<path style="fill:#f8f9f8; stroke:none;" d="M55 95L77 101L85 87C82.127 82.9214 74.4911 72.2068 69.0147 72.2068C61.7194 72.2068 55.8579 89.2767 55 95M140 86L140 87L148.251 101L151.6 110.972L173 112C172.969 100.752 169.895 89.579 163.934 80C162.291 77.3595 159.636 72.2068 155.985 72.2068C150.622 72.2068 143.548 82.4515 140 86z"/>
<path style="fill:#eddd3d; stroke:none;" d="M159 71L160 72L159 71M214 71L215 72L214 71M7 74L8 75L7 74M111 74L112 75L111 74M113 74L114 75L113 74M217 74L218 75L217 74M104 75L105 76L104 75M120 75L121 76L120 75M61 76L62 77L61 76M109 76L109 77L112 77L109 76M113 76L113 77L116 77L113 76M163 76L164 77L163 76M6 77L7 78L6 77M85 77L86 78L85 77z"/>
<path style="fill:#f8f9f8; stroke:none;" d="M105 77C105.5 83.1156 106.754 95.3392 112 99L112 77L105 77M113 77L113 99C119.379 96.7804 121.062 83.955 123 78L113 77z"/>
<path style="fill:#eddd3d; stroke:none;" d="M121 77L122 78L121 77M135 77L136 78L135 77M218 77L219 78L218 77M192 78L193 79L192 78M59 79L60 80L59 79M61 79L62 80L61 79M163 79L164 80L163 79M165 79L166 80L165 79M5 80L6 81L5 80M133 80L134 81L133 80M219 80L220 81L219 80M88 81L89 82L88 81M135 82L136 83L135 82M6 83L7 84L6 83M30 83L31 84L30 83z"/>
<path style="fill:#f8f9f8; stroke:none;" d="M132 83L121 102L137 87L132 83z"/>
<path style="fill:#eddd3d; stroke:none;" d="M194 83L195 84L194 83M218 83L219 84L218 83M4 84L5 85L4 84z"/>
<path style="fill:#f8f9f8; stroke:none;" d="M90 84L88 86L88 87L103 101L90 84z"/>
<path style="fill:#eddd3d; stroke:none;" d="M220 84L221 85L220 84M31 85L32 86L31 85M88 85L89 86L88 85M91 85L92 86L91 85M130 85L131 86L130 85M136 85L137 86L136 85M193 85L194 86L193 85M195 86L196 87L195 86M5 87L6 88L5 87M31 87L32 88L31 87M219 87L220 88L219 87M3 88L4 89L3 88M85 88L86 89L85 88z"/>
<path style="fill:#f8f9f8; stroke:none;" d="M86 88L79 102L100 108C103.177 100.171 91.8257 92.1037 86 88z"/>
<path style="fill:#eddd3d; stroke:none;" d="M119 88L120 89L119 88M128 88L129 89L128 88z"/>
<path style="fill:#f8f9f8; stroke:none;" d="M138 88L123 105L124 106L138 101L140 110L129 111L129 112L148 112C147.975 102.866 145.51 93.7994 138 88z"/>
<path style="fill:#eddd3d; stroke:none;" d="M139 88L140 89L139 88M221 88L222 89L221 88M31 89L31 136L109 113L109 112L31 89z"/>
<path style="fill:#f28235; stroke:none;" d="M32 89L33 90L32 89z"/>
<path style="fill:#eddd3d; stroke:none;" d="M38 89L39 90L38 89M54 89L55 90L54 89M82 89L83 90L82 89M94 89L95 90L94 89M142 89L143 90L142 89M170 89L171 90L170 89M41 90L42 91L41 90z"/>
<path style="fill:#f28235; stroke:none;" d="M39 91L40 92L39 91z"/>
<path style="fill:#eddd3d; stroke:none;" d="M55 91L56 92L55 91M118 91L119 92L118 91M169 91L170 92L169 91M4 92L5 93L4 92z"/>
<path style="fill:#f28235; stroke:none;" d="M42 92L43 93L42 92z"/>
<path style="fill:#eddd3d; stroke:none;" d="M48 92L49 93L48 92M80 92L81 93L80 92M82 92L83 93L82 92M142 92L143 93L142 92M144 92L145 93L144 92M195 92L196 93L195 92M220 92L221 93L220 92M2 93L3 94L2 93M51 93L52 94L51 93M125 93L126 94L125 93M222 93L223 94L222 93z"/>
<path style="fill:#f28235; stroke:none;" d="M49 94L50 95L49 94z"/>
<path style="fill:#eddd3d; stroke:none;" d="M117 94L118 95L117 94M170 94L171 95L170 94z"/>
<path style="fill:#f28235; stroke:none;" d="M52 95L53 96L52 95z"/>
<path style="fill:#eddd3d; stroke:none;" d="M58 95L59 96L58 95M172 95L173 96L172 95M61 96L62 97L61 96M123 96L124 97L123 96M28 97L29 98L28 97z"/>
<path style="fill:#f28235; stroke:none;" d="M59 97L60 98L59 97z"/>
<path style="fill:#eddd3d; stroke:none;" d="M116 97L117 98L116 97M196 97L197 98L196 97M3 98L4 99L3 98z"/>
<path style="fill:#f8f9f8; stroke:none;" d="M28 98L28 112L29 112L28 98z"/>
<path style="fill:#f28235; stroke:none;" d="M62 98L63 99L62 98z"/>
<path style="fill:#eddd3d; stroke:none;" d="M68 98L69 99L68 98M171 98L172 99L171 98M221 98L222 99L221 98M26 99L27 100L26 99M115 99L116 100L115 99M173 99L174 100L173 99M198 99L199 100L198 99M1.33333 100.667L1.66667 101.333L1.33333 100.667z"/>
<path style="fill:#f28235; stroke:none;" d="M69 100L70 101L69 100z"/>
<path style="fill:#eddd3d; stroke:none;" d="M78.3333 100.667L78.6667 101.333L78.3333 100.667M146 100L147 101L146 100M223.333 100.667L223.667 101.333L223.333 100.667z"/>
<path style="fill:#f28235; stroke:none;" d="M72 101L73 102L72 101z"/>
<path style="fill:#f8f9f8; stroke:none;" d="M111.333 101.667L111.667 102.333L111.333 101.667M113 101L113 105L114 105L115 101L113 101z"/>
<path style="fill:#eddd3d; stroke:none;" d="M120 101L121 102L120 101M133 102L134 103L133 102z"/>
<path style="fill:#f28235; stroke:none;" d="M79 103L80 104L79 103z"/>
<path style="fill:#eddd3d; stroke:none;" d="M85 103L86 104L85 103M111 103L112 104L111 103M114 103L115 104L114 103z"/>
<path style="fill:#f8f9f8; stroke:none;" d="M119 103L120 104L119 103z"/>
<path style="fill:#eddd3d; stroke:none;" d="M131 103L132 104L131 103z"/>
<path style="fill:#3969f1; stroke:none;" d="M136 103L122 109L122 110L138 108L136 103z"/>
<path style="fill:#eddd3d; stroke:none;" d="M147 103L148 104L147 103M172 103L173 104L172 103M27.3333 104.667L27.6667 105.333L27.3333 104.667M88 104L89 105L88 104M118 104L119 105L118 104M197 104L197 107L198 107L197 104z"/>
<path style="fill:#f28235; stroke:none;" d="M86 105L87 106L86 105z"/>
<path style="fill:#f8f9f8; stroke:none;" d="M103 105L102 109L108 110L103 105z"/>
<path style="fill:#eddd3d; stroke:none;" d="M113 105L114 106L113 105z"/>
<path style="fill:#f8f9f8; stroke:none;" d="M121 105L118 109L121 105z"/>
<path style="fill:#eddd3d; stroke:none;" d="M126 105L127 106L126 105M174.333 105.667L174.667 106.333L174.333 105.667z"/>
<path style="fill:#f28235; stroke:none;" d="M89 106L90 107L89 106z"/>
<path style="fill:#eddd3d; stroke:none;" d="M95 106L96 107L95 106M98 107L99 108L98 107z"/>
<path style="fill:#f28235; stroke:none;" d="M96 108L97 109L96 108z"/>
<path style="fill:#eddd3d; stroke:none;" d="M119 108L120 109L119 108M25.3333 109.667L25.6667 110.333L25.3333 109.667z"/>
<path style="fill:#f28235; stroke:none;" d="M99 109L100 110L99 109z"/>
<path style="fill:#eddd3d; stroke:none;" d="M105 109L106 110L105 109M117 109L118 110L117 109M148.333 109.667L148.667 110.333L148.333 109.667M199.333 109.667L199.667 110.333L199.333 109.667M108 110L109 111L108 110z"/>
<path style="fill:#3969f1; stroke:none;" d="M120 110L121 111L120 110z"/>
<path style="fill:#eddd3d; stroke:none;" d="M133 110L134 111L133 110M27 111L28 112L27 111z"/>
<path style="fill:#f28235; stroke:none;" d="M106 111L107 112L106 111z"/>
<path style="fill:#eddd3d; stroke:none;" d="M128 111L129 112L128 111M150 111L151 112L150 111M197 111L198 112L197 111z"/>
<path style="fill:#f8f9f8; stroke:none;" d="M3 113C3 134.957 9.11436 155.68 21.3333 174C28.4208 184.626 32.4434 191.624 42.9992 181C44.9064 179.08 47.9074 176.782 48.5386 174C49.638 169.153 39.9508 160.199 37.4529 156C29.2514 142.214 27.8412 128.304 25 113L3 113z"/>
<path style="fill:#eddd3d; stroke:none;" d="M27 113L28 114L27 113z"/>
<path style="fill:#f8f9f8; stroke:none;" d="M28 113L28 127L29 127L28 113z"/>
<path style="fill:#f28235; stroke:none;" d="M106 113L107 114L106 113z"/>
<path style="fill:#eddd3d; stroke:none;" d="M115 113L116 114L115 113z"/>
<path style="fill:#f8f9f8; stroke:none;" d="M116 113L122 119L124 113L116 113M142 134L148 113C142.769 113 130.986 110.781 126.703 114.028C118.1 120.548 136.971 132.294 142 134z"/>
<path style="fill:#eddd3d; stroke:none;" d="M150 113L151 114L150 113z"/>
<path style="fill:#f8f9f8; stroke:none;" d="M143 137L159 150L160 150C168.718 139.745 172.963 126.377 173 113L151.6 114.028L143 137M175 113C174.832 121.151 173.065 129.561 169.688 137C167.937 140.856 162.673 146.618 163.103 150.961C163.662 156.607 175.181 163.375 180 165C188.136 153.55 194.352 140.996 196.561 127C197.031 124.021 199.047 116.223 196.382 114.028C192.386 110.735 180.028 113 175 113z"/>
<path style="fill:#eddd3d; stroke:none;" d="M197 113L198 114L197 113z"/>
<path style="fill:#f8f9f8; stroke:none;" d="M200 113L193.396 144L181 168L191 175L191 176L184 182L184 183C193.953 192.595 199.309 180.644 204.997 172C216.569 154.414 222 133.909 222 113L200 113z"/>
<path style="fill:#eddd3d; stroke:none;" d="M25.3333 114.667L25.6667 115.333L25.3333 114.667M125 114L126 115L125 114M148.333 114.667L148.667 115.333L148.333 114.667M199.333 114.667L199.667 115.333L199.333 114.667z"/>
<path style="fill:#f28235; stroke:none;" d="M99 115L100 116L99 115z"/>
<path style="fill:#eddd3d; stroke:none;" d="M117 115L118 116L117 115M123 115L124 116L123 115z"/>
<path style="fill:#f28235; stroke:none;" d="M96 116L97 117L96 116z"/>
<path style="fill:#f8f9f8; stroke:none;" d="M110 116L106 122L110 123L110 116z"/>
<path style="fill:#f28235; stroke:none;" d="M92 117L93 118L92 117z"/>
<path style="fill:#eddd3d; stroke:none;" d="M98.3333 117.667L98.6667 118.333L98.3333 117.667z"/>
<path style="fill:#f8f9f8; stroke:none;" d="M99 117L100 118L99 117M114 117L118 123L114 117z"/>
<path style="fill:#eddd3d; stroke:none;" d="M27 118L27 121L28 121L27 118z"/>
<path style="fill:#f28235; stroke:none;" d="M89 118L90 119L89 118z"/>
<path style="fill:#eddd3d; stroke:none;" d="M95 118L97 120L95 118z"/>
<path style="fill:#f8f9f8; stroke:none;" d="M96.6667 118.333L97.3333 118.667L96.6667 118.333z"/>
<path style="fill:#eddd3d; stroke:none;" d="M174.333 118.667L174.667 119.333L174.333 118.667M197 118L197 121L198 121L197 118z"/>
<path style="fill:#f28235; stroke:none;" d="M86 119L87 120L86 119z"/>
<path style="fill:#f8f9f8; stroke:none;" d="M79 123L80 128L96 120L79 123z"/>
<path style="fill:#3969f1; stroke:none;" d="M69 135L72 141L73 141L102 120C93.4606 118.578 76.4611 130.645 69 135z"/>
<path style="fill:#eddd3d; stroke:none;" d="M110 119L111 120L110 119M114 119L115 120L114 119z"/>
<path style="fill:#f28235; stroke:none;" d="M119 119L138.627 147L172 192L173 192C176.533 188.467 186.793 181.378 186.793 176.039C186.793 170.921 174.651 163.944 171 161C153.831 147.154 137.396 131.167 119 119z"/>
<path style="fill:#eddd3d; stroke:none;" d="M123.333 119.667L123.667 120.333L123.333 119.667M149 119L150 120L149 119z"/>
<path style="fill:#f28235; stroke:none;" d="M82 120L83 121L82 120z"/>
<path style="fill:#eddd3d; stroke:none;" d="M88 120L89 121L88 120M94 120L95 121L94 120M112 120L103 173L122 173C119.969 157.016 118.989 134.515 112 120z"/>
<path style="fill:#f28235; stroke:none;" d="M79 121L80 122L79 121z"/>
<path style="fill:#eddd3d; stroke:none;" d="M92 121L93 122L92 121M105 121L106 122L105 121M147 121L148 122L147 121M172 121L173 122L172 121M90 122L91 123L90 122z"/>
<path style="fill:#f8f9f8; stroke:none;" d="M100 122L84 134L86 137L87 137L100 122z"/>
<path style="fill:#eddd3d; stroke:none;" d="M1.33333 123.667L1.66667 124.333L1.33333 123.667z"/>
<path style="fill:#f28235; stroke:none;" d="M72 123L73 124L72 123z"/>
<path style="fill:#eddd3d; stroke:none;" d="M78.3333 123.667L78.6667 124.333L78.3333 123.667M88 123L89 124L88 123z"/>
<path style="fill:#f8f9f8; stroke:none;" d="M88 138L88 139L105 148C106.433 143.768 112.439 124.487 104.941 123.971C99.1006 123.569 91.7695 134.23 88 138z"/>
<path style="fill:#eddd3d; stroke:none;" d="M105 123L106 124L105 123M223.333 123.667L223.667 124.333L223.333 123.667z"/>
<path style="fill:#f28235; stroke:none;" d="M69 124L70 125L69 124z"/>
<path style="fill:#f8f9f8; stroke:none;" d="M55 130C55.8041 135.365 62.5506 154.563 70.0147 152.654C75.4587 151.263 81.1206 142.879 85 139L85 138C79.6272 136.202 75.7621 140.737 71 143L66 134L78 129L77 124L55 130z"/>
<path style="fill:#eddd3d; stroke:none;" d="M86 124L87 125L86 124M107 124L108 125L107 124M117 124L118 125L117 124z"/>
<path style="fill:#f8f9f8; stroke:none;" d="M120 148L133 142C131.163 138.776 122.146 122.689 117.593 125.327C113.627 127.625 118.791 144.429 120 148z"/>
<path style="fill:#eddd3d; stroke:none;" d="M128 124L129 125L128 124M146 124L147 125L146 124M26 125L27 126L26 125M71 125L72 126L71 125M84 125L85 126L84 125M173 125L174 126L173 125M198 125L199 126L198 125M3 126L4 127L3 126z"/>
<path style="fill:#f28235; stroke:none;" d="M62 126L63 127L62 126z"/>
<path style="fill:#eddd3d; stroke:none;" d="M68 126L69 127L68 126M77 126L78 127L77 126M82 126L83 127L82 126M147 126L148 127L147 126M171 126L172 127L171 126M221 126L222 127L221 126M28 127L29 128L28 127z"/>
<path style="fill:#f28235; stroke:none;" d="M59 127L60 128L59 127z"/>
<path style="fill:#eddd3d; stroke:none;" d="M122 127L123 128L122 127M196 127L197 128L196 127M61 128L62 129L61 128M133 128L134 129L133 128z"/>
<path style="fill:#f28235; stroke:none;" d="M52 129L53 130L52 129z"/>
<path style="fill:#eddd3d; stroke:none;" d="M58 129L59 130L58 129M76 129L77 130L76 129M172 129L173 130L172 129z"/>
<path style="fill:#f28235; stroke:none;" d="M49 130L50 131L49 130z"/>
<path style="fill:#eddd3d; stroke:none;" d="M74 130L75 131L74 130M89 130L90 131L89 130M108 130L109 131L108 130M116 130L117 131L116 130M170 130L171 131L170 130M2 131L3 132L2 131z"/>
<path style="fill:#f28235; stroke:none;" d="M45 131L46 132L45 131z"/>
<path style="fill:#eddd3d; stroke:none;" d="M51 131L52 132L51 131z"/>
<path style="fill:#f8f9f8; stroke:none;" d="M31 138C35.3079 150.734 41.8927 162.083 51 172L52 172L65.8827 156L53 131L31 138z"/>
<path style="fill:#eddd3d; stroke:none;" d="M72 131L73 132L72 131M125 131L126 132L125 131M222 131L223 132L222 131M4 132L5 133L4 132z"/>
<path style="fill:#f28235; stroke:none;" d="M42 132L43 133L42 132z"/>
<path style="fill:#eddd3d; stroke:none;" d="M48 132L49 133L48 132M53 132L54 133L53 132M70 132L71 133L70 132M142 132L143 133L142 132M144 132L145 133L144 132M171 132L172 133L171 132M195 132L196 133L195 132M220 132L221 133L220 132z"/>
<path style="fill:#f28235; stroke:none;" d="M39 133L40 134L39 133z"/>
<path style="fill:#eddd3d; stroke:none;" d="M55 133L56 134L55 133M68 133L69 134L68 133M85 133L86 134L85 133M139 133L140 134L139 133M169 133L170 134L169 133z"/>
<path style="fill:#f28235; stroke:none;" d="M35 134L36 135L35 134z"/>
<path style="fill:#eddd3d; stroke:none;" d="M41 134L42 135L41 134M66 134L67 135L66 134z"/>
<path style="fill:#f28235; stroke:none;" d="M32 135L33 136L32 135z"/>
<path style="fill:#eddd3d; stroke:none;" d="M54 135L55 136L54 135M128 135L129 136L128 135M142 135L143 136L142 135M170 135L171 136L170 135M3 136L4 137L3 136M81 136L82 137L81 136M107 136L108 137L107 136M117 136L118 137L117 136M221 136L222 137L221 136M5 137L6 138L5 137M31 137L32 138L31 137M144 137L145 138L144 137M219 137L220 138L219 137M29 138L30 139L29 138M195 138L196 139L195 138M31 139L32 140L31 139M77 139L78 140L77 139M4 140L5 141L4 140z"/>
<path style="fill:#f8f9f8; stroke:none;" d="M86 140C82.4666 143.533 72.2068 150.622 72.2068 155.961C72.2068 164.936 94.3375 170.621 101 172L105 149L86 140z"/>
<path style="fill:#eddd3d; stroke:none;" d="M220 140L221 141L220 140M6 141L7 142L6 141M30 141L31 142L30 141M194 141L195 142L194 141M218 141L219 142L218 141M92 142L93 143L92 142M106 142L107 143L106 142M118 142L119 143L118 142M132 142L133 143L132 142M150 142L151 143L150 142M5 144L6 145L5 144M33 144L34 145L33 144M92 144L93 145L92 144M132 144L133 145L132 144z"/>
<path style="fill:#f8f9f8; stroke:none;" d="M120 149L124 172L148 162L135 144L120 149z"/>
<path style="fill:#eddd3d; stroke:none;" d="M191 144L192 145L191 144M219 144L220 145L219 144M32 146L33 147L32 146M100 146L101 147L100 146M124 146L125 147L124 146M136 146L137 147L136 146M155 146L156 147L155 146M192 146L193 147L192 146M6 147L7 148L6 147M98 147L99 148L98 147M105 147L106 148L105 147M119 147L120 148L119 147M126 147L127 148L126 147M218 147L219 148L218 147M61 148L62 149L61 148M101 148L102 149L101 148M123 148L124 149L123 148M163 148L164 149L163 148M64 149L65 150L64 149M160 149L161 150L160 149M7 150L8 151L7 150M139 150L140 151L139 150M217 150L218 151L217 150M161 151L162 152L161 151M10 153L11 154L10 153M65 153L66 154L65 153M214 153L215 154L214 153M66 154L67 155L66 154M104 154L105 155L104 154M120 154L121 155L120 154M142 154L143 155L142 154M9 155L10 156L9 155M166 155L167 156L166 155M215 155L216 156L215 155M37 156L38 157L37 156M39 156L40 157L39 156M185 156L186 157L185 156M187 156L188 157L187 156z"/>
<path style="fill:#f8f9f8; stroke:none;" d="M53 173L53 174C64.8393 184.872 79.1803 192.791 95 195.996C98.3749 196.68 108.455 199.437 110.972 196.382C114.265 192.386 112 180.028 112 175C102.138 174.999 92.7062 172.441 84 167.688C79.9764 165.491 73.7207 158.77 69 159.117C63.3835 159.529 56.7701 169.23 53 173z"/>
<path style="fill:#eddd3d; stroke:none;" d="M70 158L71 159L70 158M145 158L146 159L145 158M71 159L72 160L71 159M75 160L76 161L75 160M103 160L104 161L103 160M121 160L122 161L121 160M172 160L173 161L172 160M43 162L44 163L43 162M181 162L182 163L181 162z"/>
<path style="fill:#f8f9f8; stroke:none;" d="M148 163C137.903 170.699 125.657 174.999 113 175C113 179.511 110.65 194.076 114.603 196.933C116.933 198.616 122.33 197.132 125 196.833C134.336 195.789 143.692 192.534 152 188.216C154.623 186.853 159.679 184.879 160.669 181.79C162.24 176.886 151.506 165.896 148 163z"/>
<path style="fill:#eddd3d; stroke:none;" d="M177 164L178 165L177 164M43 165L44 166L43 165M102 165L103 166L102 165M122 165L123 166L122 165M178 165L179 166L178 165M181 165L182 166L181 165M46 166L47 167L46 166M16 169L17 170L16 169M18 169L19 170L18 169M91 169L92 170L91 169M133 169L134 170L133 169M153 169L154 170L153 169M183 169L184 170L183 169M206 169L207 170L206 169M208 169L209 170L208 169M89 170L90 171L89 170M94 170L95 171L94 170M130 170L131 171L130 170M135 170L136 171L135 170M92 171L93 172L92 171M98 171L99 172L98 171M101 171L102 172L101 171M123 171L124 172L123 171M126 171L127 172L126 171M132 171L133 172L132 171M20 172L21 173L20 172M49 172L50 173L49 172M95 172L96 173L95 172M129 172L130 173L129 172M204 172L205 173L204 172M99 173L100 174L99 173M125 173L126 174L125 173M156 173L157 174L156 173M188 173L189 174L188 173M22 175L23 176L22 175z"/>
<path style="fill:#f8f9f8; stroke:none;" d="M112 222C112 216.941 114.248 204.791 110.972 200.742C108.384 197.544 97.9957 198.264 94 197.349C82.4083 194.692 71.6915 189.873 62 182.96C58.2845 180.309 53.9061 174.299 49 177.427C30.9747 188.919 40.3432 196.789 54 205.655C71.2695 216.867 91.5781 222 112 222z"/>
<path style="fill:#eddd3d; stroke:none;" d="M52 175L53 176L52 175M202 175L203 176L202 175M159 177L160 178L159 177M22 178L23 179L22 178M58 178L59 179L58 178M202 178L203 179L202 178M59 181L60 182L59 181M62 181L63 182L62 181M26 183L27 184L26 183z"/>
<path style="fill:#f8f9f8; stroke:none;" d="M113 222C133.909 222 154.414 216.569 172 204.997C180.644 199.309 192.595 193.953 183 184L182 184L171 194L164 183L130 197.576L114.028 200.742L113 222z"/>
<path style="fill:#eddd3d; stroke:none;" d="M198 183L199 184L198 183M29 184L30 185L29 184M195 184L196 185L195 184M68 185L69 186L68 185M156 185L157 186L156 185M68 187L69 188L68 187M156 187L157 188L156 187M80 191L81 192L80 191M144 191L145 192L144 191M78 192L79 193L78 192M146 192L147 193L146 192M170 192L171 193L170 192M83 194L84 195L83 194M141 194L142 195L141 194M40 195L41 196L40 195M86 195L87 196L86 195M138 195L139 196L138 195M184 195L185 196L184 195M97 196L98 197L97 196M127 196L128 197L127 196M94 197L95 198L94 197M105.667 197.333L106.333 197.667L105.667 197.333M111 197L112 198L111 197M113 197L114 198L113 197M118.667 197.333L119.333 197.667L118.667 197.333M130 197L131 198L130 197M41 198L42 199L41 198M99 198L100 199L99 198M125 198L126 199L125 198M183 198L184 199L183 198M110 199L111 200L110 199M114 199L115 200L114 199M46 202L47 203L46 202M49 202L50 203L49 202M175 202L176 203L175 202M178 202L179 203L178 202M52 204L53 205L52 204M172 204L173 205L172 204M52 206L53 207L52 206M55 206L56 207L55 206M169 206L170 207L169 206M172 206L173 207L172 206M55 208L56 209L55 208M169 208L170 209L169 208M167 209L168 210L167 209M71 214L72 215L71 214M153 214L154 215L153 214M69 215L70 216L69 215M155 215L156 216L155 215M74 217L75 218L74 217M150 217L151 218L150 217M77 218L78 219L77 218M83 218L84 219L83 218M141 218L142 219L141 218M147 218L148 219L147 218M87 219L88 220L87 219M137 219L138 220L137 219M84 220L85 221L84 220M92 220L93 221L92 220M132 220L133 221L132 220M140 220L141 221L140 220M88 221L89 222L88 221M98 221L99 222L98 221M126 221L127 222L126 221M136 221L137 222L136 221M93 222L94 223L93 222M131 222L132 223L131 222M101 223L102 224L101 223M123 223L124 224L123 223z"/>
</svg>
