<?xml version="1.0" standalone="yes"?>
<svg xmlns="http://www.w3.org/2000/svg" width="234" height="216">
<path style="fill:#fefffe; stroke:none;" d="M0 0L0 216L49 216L49 215C22.1223 213.828 2.09165 187.425 1 162L34 162C34.4946 183.038 62.6589 191.215 74.0054 172.999C86.3027 153.257 62.8702 133.529 44 143L29 114C52.3535 107.324 73.5596 104.258 92.9606 123.09C123.889 153.113 106.775 213.004 61 215L61 216L234 216L234 0L122 0L122 1C148.768 1.57019 173.268 30.4773 170.829 57C169 76.902 158.353 90.1563 143 102C139.918 93.5811 129.387 83.8781 128.828 75C128.54 70.4267 134.698 66.3059 136.235 62C140.892 48.9526 132.048 34.3662 118 33.1883C97.328 31.4549 84.7877 62.3691 105 72L90 101C82.1474 98.3955 76.0911 91.6254 71.4398 85C49.4356 53.6564 69.4676 2.7672 110 1L77 0L0 0z"/>
<path style="fill:#cfa2d2; stroke:none;" d="M110 0L110 1L122 1L110 0M104.667 1.33333L105.333 1.66667L104.667 1.33333z"/>
<path style="fill:#ff0303; stroke:none;" d="M127 73L143 101C169.425 90.8356 176.19 53.1177 164.63 30C153.528 7.80017 127.138 -4.17206 103 2.15587C71.946 10.2968 54.8067 42.8233 65.3449 73C68.3503 81.6061 76.9818 97.6794 86.9568 99.5926C92.2224 100.603 102.243 80.6162 103.488 76.0147C104.695 71.5579 99.6789 68.4298 97.6134 64.9961C94.2435 59.394 93.6847 53.0458 96.1296 47C106.919 20.3196 147.996 38.0762 135.861 63C133.802 67.2292 130.67 70.1798 127 73z"/>
<path style="fill:#cfa2d2; stroke:none;" d="M127.667 1.33333L128.333 1.66667L127.667 1.33333M100.667 2.33333L101.333 2.66667L100.667 2.33333M131 2L132 3L131 2M97.6667 3.33333L98.3333 3.66667L97.6667 3.33333M134 3L135 4L134 3M95 4L96 5L95 4M136.667 4.33333L137.333 4.66667L136.667 4.33333M93 5L94 6L93 5M139 5L140 6L139 5M91 6L92 7L91 6M141 6L142 7L141 6M89 7L90 8L89 7M143 7L144 8L143 7M87 8L88 9L87 8M146 9L147 10L146 9M84 10L85 11L84 10M149 11L150 12L149 11M150 12L151 13L150 12M80 13L81 14L80 13M79 14L80 15L79 14M78 15L79 16L78 15M77 16L78 17L77 16M76 17L77 18L76 17M75 18L76 19L75 18M74 19L75 20L74 19M157 19L158 20L157 19M158 20L159 21L158 20M159 21L160 22L159 21M72 22L73 23L72 22M71 23L72 24L71 23M161 24L162 25L161 24M70 25L71 26L70 25M69 26L70 27L69 26M162 26L163 27L162 26M163 27L164 28L163 27M68 28L69 29L68 28M164 29L165 30L164 29M67 30L68 31L67 30M165 31L166 32L165 31M66 32L67 33L66 32M110 33L110 34L113 34L110 33M120.667 33.3333L121.333 33.6667L120.667 33.3333M108 34L109 35L108 34M124 34L125 35L124 34M166 34L167 35L166 34M65 35L66 36L65 35M106 35L107 36L106 35M126 35L127 36L126 35M104 36L105 37L104 36M167 36L168 37L167 36M64.3333 37.6667L64.6667 38.3333L64.3333 37.6667M129 37L130 38L129 37M130 38L131 39L130 38M100 39L101 40L100 39M131 39L132 40L131 39M168.333 39.6667L168.667 40.3333L168.333 39.6667M63.3333 40.6667L63.6667 41.3333L63.3333 40.6667M132 40L133 41L132 40M133 41L134 42L133 41M98 42L99 43L98 42M97 43L98 44L97 43M169 43L169 46L170 46L169 43M135 44L136 45L135 44M62 45L62 48L63 48L62 45M96 45L97 46L96 45M136 47L137 48L136 47M95 48L96 49L95 48M170 49L170 60L171 60L170 49M137 50L137 53L138 53L137 50M94 52L94 57L95 57L94 52M137 57L137 60L138 60L137 57M95 60L96 61L95 60M62 61L62 64L63 64L62 61M136 61L137 62L136 61M96 63L97 64L96 63M135 64L136 65L135 64M169.333 64.6667L169.667 65.3333L169.333 64.6667M97 65L98 66L97 65M98 66L99 67L98 66M63.3333 67.6667L63.6667 68.3333L63.3333 67.6667M133 67L134 68L133 67M132 68L133 69L132 68M168.333 68.6667L168.667 69.3333L168.333 68.6667M100 69L101 70L100 69M131 69L132 70L131 69M64.3333 70.6667L64.6667 71.3333L64.3333 70.6667M101 70L102 71L101 70M130 70L131 71L130 70M129 71L130 72L129 71M104 72L105 73L104 72M167 72L168 73L167 72M65.3333 73.6667L65.6667 74.3333L65.3333 73.6667M104 74L105 75L104 74M127 74L128 75L127 74M166.333 74.6667L166.667 75.3333L166.333 74.6667M128 75L129 76L128 75M66 76L67 77L66 76M103 76L104 77L103 76M129 77L130 78L129 77M165 77L166 78L165 77M67 78L68 79L67 78M102 78L103 79L102 78M130 79L131 80L130 79M164 79L165 80L164 79M68 80L69 81L68 80M100 81L101 82L100 81M163 81L164 82L163 81M69 82L70 83L69 82M132 82L133 83L132 82M70 83L71 84L70 83M99 83L100 84L99 83M133 84L134 85L133 84M161 84L162 85L161 84M71 85L72 86L71 85M98 85L99 86L98 85M72 86L73 87L72 86M97 86L98 87L97 86M134 86L135 87L134 86M159 87L160 88L159 87M96 88L97 89L96 88M158 88L159 89L158 88M74 89L75 90L74 89M136 89L137 90L136 89M75 90L76 91L75 90M95 90L96 91L95 90M76 91L77 92L76 91M137 91L138 92L137 91M77 92L78 93L77 92M78 93L79 94L78 93M93 93L94 94L93 93M138 93L139 94L138 93M79 94L80 95L79 94M139 94L140 95L139 94M80 95L81 96L80 95M92 95L93 96L92 95M81 96L82 97L81 96M140 96L141 97L140 96M150 96L151 97L150 96M91 97L92 98L91 97M149 97L150 98L149 97M84 98L85 99L84 98M141 98L142 99L141 98M85 99L86 100L85 99M146 99L147 100L146 99M87 100L88 101L87 100M89 100L90 101L89 100M143 101L144 102L143 101M172 107L172 108L184 108L172 107z"/>
<path style="fill:#03ff03; stroke:none;" d="M29 114L44 143C48.8449 141.194 53.7635 139.353 59 140.53C62.9343 141.414 66.9548 143.451 69.8951 146.213C92.8566 167.784 53.0704 199.655 36.8804 171.985C34.9941 168.761 34.1912 165.686 34 162L1 162C1.21512 172.422 4.32845 183.265 10.1042 192C15.0204 199.435 22.0404 205.737 30 209.73C37.437 213.46 45.6427 215.82 54 215.985C118.159 217.247 129.943 120.124 66 108.616C52.8723 106.253 41.057 109.055 29 114z"/>
<path style="fill:#cfa2d2; stroke:none;" d="M166 108L166 109L169 109L166 108z"/>
<path style="fill:#0303ff; stroke:none;" d="M152 208L167 180C150.972 167.522 155.815 139.363 179 140.058C201.448 140.73 205.223 168.539 189 180L205 208C232.674 198.821 237.626 158.573 226.019 136C215.503 115.55 193.188 105.951 171 108.171C139.745 111.298 119.85 142.25 125.084 172C127.475 185.591 137.474 204.546 152 208z"/>
<path style="fill:#cfa2d2; stroke:none;" d="M188.667 108.333L189.333 108.667L188.667 108.333M163 109L164 110L163 109M192.667 109.333L193.333 109.667L192.667 109.333M160 110L161 111L160 110M196 110L197 111L196 110M157 111L158 112L157 111M198 111L199 112L198 111M155 112L156 113L155 112M201 112L202 113L201 112M153 113L154 114L153 113M203 113L204 114L203 113M151 114L152 115L151 114M149 115L150 116L149 115M206 115L207 116L206 115M208 116L209 117L208 116M146 117L147 118L146 117M209 117L210 118L209 117M145 118L146 119L145 118M212 119L213 120L212 119M213 120L214 121L213 120M141 121L142 122L141 121M214 121L215 122L214 121M140 122L141 123L140 122M139 123L140 124L139 123M138 124L139 125L138 124M137 125L138 126L137 125M218 125L219 126L218 125M219 126L220 127L219 126M220 127L221 128L220 127M134 129L135 130L134 129M133 130L134 131L133 130M222 130L223 131L222 130M223 131L224 132L223 131M132 132L133 133L132 132M224 133L225 134L224 133M130 135L131 136L130 135M226 136L227 137L226 136M129 137L130 138L129 137M227.333 138.667L227.667 139.333L227.333 138.667M128 139L129 140L128 139M173 140L173 141L176 141L173 140M181 140L181 141L184 141L181 140M170 141L171 142L170 141M185 141L186 142L185 141M228 141L229 142L228 141M127 142L128 143L127 142M168 142L169 143L168 142M188 142L189 143L188 142M166 143L167 144L166 143M189 143L190 144L189 143M229.333 143.667L229.667 144.333L229.333 143.667M126.333 144.667L126.667 145.333L126.333 144.667M165 144L166 145L165 144M191 144L192 145L191 144M192 145L193 146L192 145M193 146L194 147L193 146M230.333 146.667L230.667 147.333L230.333 146.667M194 147L195 148L194 147M125.333 148.667L125.667 149.333L125.333 148.667M160 149L161 150L160 149M196 150L197 151L196 150M231 150L231 153L232 153L231 150M124 152L124 155L125 155L124 152M158 152L159 153L158 152M197 152L198 153L197 152M198 154L199 155L198 154M157 155L158 156L157 155M232 156L232 168L233 168L232 156M199 157L199 160L200 160L199 157M156 159L156 164L157 164L156 159M199 163L199 167L200 167L199 163M157 167L158 168L157 167M124 168L124 171L125 171L124 168M198.333 168.667L198.667 169.333L198.333 168.667M158 170L159 171L158 170M197 171L198 172L197 171M231.333 171.667L231.667 172.333L231.333 171.667M159 172L160 173L159 172M196 173L197 174L196 173M125.333 174.667L125.667 175.333L125.333 174.667M195 174L196 175L195 174M161 175L162 176L161 175M162 176L163 177L162 176M230 176L231 177L230 176M163 177L164 178L163 177M126 178L127 179L126 178M164 178L165 179L164 178M191 178L192 179L191 178M190 179L191 180L190 179M229 179L230 180L229 179M167 180L168 181L167 180M127 181L128 182L127 181M189 181L190 182L189 181M228 182L229 183L228 182M128 183L129 184L128 183M165 183L166 184L165 183M191 184L192 185L191 184M227 184L228 185L227 184M129 185L130 186L129 185M164 185L165 186L164 185M192 186L193 187L192 186M226 186L227 187L226 186M130 187L131 188L130 187M163 187L164 188L163 187M193 188L194 189L193 188M225 188L226 189L225 188M131 189L132 190L131 189M194 189L195 190L194 189M161 190L162 191L161 190M224 190L225 191L224 190M132 191L133 192L132 191M195 191L196 192L195 191M223 191L224 192L223 191M133 192L134 193L133 192M160 192L161 193L160 192M196 193L197 194L196 193M159 194L160 195L159 194M221 194L222 195L221 194M135 195L136 196L135 195M158 195L159 196L158 195M197 195L198 196L197 195M220 195L221 196L220 195M136 196L137 197L136 196M198 196L199 197L198 196M137 197L138 198L137 197M157 197L158 198L157 197M138 198L139 199L138 198M199 198L200 199L199 198M156 199L157 200L156 199M200 200L201 201L200 200M141 201L142 202L141 201M155 201L156 202L155 201M142 202L143 203L142 202M154 202L155 203L154 202M143 203L144 204L143 203M202 203L203 204L202 203M144 204L145 205L144 204M153 204L154 205L153 204M211 204L212 205L211 204M203 205L204 206L203 205M210 205L211 206L210 205M147 206L148 207L147 206M152 206L153 207L152 206M204 207L205 208L204 207M207 207L208 208L207 207M150 208L151 209L150 208M205 208L206 209L205 208z"/>
</svg>
