<?xml version="1.0" standalone="yes"?>
<svg xmlns="http://www.w3.org/2000/svg" width="306" height="165">
<path style="fill:#fefefd; stroke:none;" d="M0 0L0 100L1 100C3.35699 73.0034 33.2258 62.5651 56 70.6983C80.9592 79.6118 95.9213 101.715 95.9213 128C95.9213 136.304 94.8342 149.14 89.3511 155.787C84.2542 161.966 74.3095 162.429 67 163.424C36.405 167.588 2.40649 144.26 1 112L0 112L0 165L149 165L149 164C138.658 163.914 123.092 161.813 115.04 154.775C99.536 141.225 100.061 108.602 102.285 90C107.58 45.7301 144.558 1.97919 192 1L174 0L135 0L0 0z"/>
<path style="fill:#f99939; stroke:none;" d="M247 119C237.853 121.891 214.597 157.03 211 131L210 131C203.956 139.574 192.724 146.856 188 133C175.412 137.842 165.568 148.557 156 132C150.636 135.341 144.819 141.697 138 141.471C127.763 141.13 127.334 128.351 128.289 121C130.454 104.346 136.148 84.1319 154 80C157.543 99.0836 145.267 105.114 139.6 121C138.248 124.79 138.125 132.954 143.059 134.208C146.813 135.161 151.435 131.449 153.686 128.826C159.057 122.566 167.468 93.9943 181.768 107.318C191.272 116.173 172.52 124.451 166 126C168.625 134.758 177.401 136.346 183.892 129.891C190.589 123.231 202.541 92.4994 216 109L228 104L224.659 115C222.831 120.858 218.012 138.977 229.91 129.517C231.189 128.501 232.342 127.232 233.361 125.961C237.707 120.536 232.846 116.51 235.472 111.005C240.282 100.922 246.032 106.602 245 115L260 105C264.857 76.7759 273.442 52.1583 254.957 26C224.362 -17.2942 157.202 -0.664047 126.286 33.0394C115.61 44.6786 108.726 58.746 104.895 74C100.161 92.8486 100.178 114.037 104.211 133C105.813 140.534 108.197 149.422 114.094 154.775C122.117 162.058 136.757 162.951 147 164.282C183.199 168.983 235.417 159.223 247 119z"/>
<path style="fill:#fefefd; stroke:none;" d="M209 0L209 1C250.878 2.80276 273.098 46.4865 265.551 84C263.084 96.2634 258.535 108.139 254.67 120C253.743 122.845 250.293 131.025 255.232 132.168C265.041 134.439 266.321 114.207 269.995 109.144C272.584 105.575 277.121 105.316 281 104L277 117C279.909 114.951 282.317 112.515 285 110.184C286.546 108.841 288.17 107.517 290 106.573C306.789 97.9106 294.467 128.647 294 134C309.841 132.236 306 113.492 306 102L306 0L209 0z"/>
<path style="fill:#3599cd; stroke:none;" d="M37 67.5139C3.3638 69.681 -7.10109 103.552 5.89043 131C16.4104 153.226 39.7064 165.565 64 163.91C71.5371 163.397 82.7551 162.732 88.6065 157.362C101.761 145.29 96.2021 111.934 89.6767 98C81.0549 79.5891 57.26 66.2086 37 67.5139z"/>
<path style="fill:#fefefd; stroke:none;" d="M195 72L195 75L197 75L197 72L195 72M200 72L201 91L202 91L203 84L211 91C209.27 85.1175 206.447 82.6916 210 77L202 82L203 72L200 72M213 72L213 75L215 72L213 72M219 73L217 77L217 78L217 79L223 91C221.359 86.7172 220.024 82.9287 223 79L223 78L223 77L221 73L219 73M178 86L178 88L170 86C172.586 94.5199 182.905 88.4782 178.394 84.0748C176.776 82.4957 174.051 81.7999 172 81L172 80L180 81C175.565 72.9585 165.468 81.6051 178 86M193 86C182.673 89.7129 183.103 77.7043 193 82C191.086 75.6935 183.123 76.0444 182.272 83.0046C181.328 90.7294 190.24 93.2145 193 86M195 77L196 91L197 91L197 77L195 77M213 77L213 91L214 91L215 77L213 77z"/>
<path style="fill:#9f662d; stroke:none;" d="M151 80L152 81L151 80z"/>
<path style="fill:#050403; stroke:none;" d="M156 131C162.343 148.014 177.558 139.133 188 132C191.066 148.876 205.384 136.894 212 130C212.077 138.512 216.682 143.906 225 138.196C233.689 132.232 238.353 122.421 248 118C245.908 123.025 242.194 128.348 242.363 133.999C242.791 148.329 259.346 136.027 264 132L265 141C276.172 139.486 271.695 134.092 275.279 126C277.832 120.235 283.101 115.733 288 112C288.725 120.025 280.705 129.14 283.757 136.941C288.285 148.516 304.902 134.115 306 127L305 127C303.201 129.258 294.315 138.197 294.477 129.976C294.572 125.177 306.465 96.6501 289 107.009C287.148 108.108 285.561 109.573 284.002 111.042C281.608 113.296 279.325 115.675 277 118L280 105C265.169 107.888 270.479 118.567 262.686 127.906C251.19 141.683 253.982 121.514 256.308 115C257.505 111.649 258.719 108.32 260 105L244 116C244.403 114.039 245.04 112.009 245.226 110.015C246.085 100.815 228.319 110.518 238 120L238 121C235.836 122.872 233.968 124.957 231.959 127.001C214.867 144.389 225.925 112.306 227 105C224.059 105.566 220.949 107.735 218 107.718C211.709 107.68 208.726 103.476 202 106.84C191.175 112.253 191.243 123.704 182.981 130.66C176.063 136.484 168.916 134.553 166 126C171.907 124.597 180.018 121.778 182.971 115.985C187.835 106.446 175.667 103.391 169 106.573C157.996 111.825 158.816 124.712 149.995 131.606C145.988 134.738 141.08 135.521 138.894 129.981C136.129 122.971 142.383 117.201 146.09 112C152.38 103.178 158.09 90.5777 153 80C149.396 81.2194 144.551 82.3016 141.637 84.8426C138.361 87.6996 136.792 93.0546 135.319 97C131.369 107.584 124.583 123.691 129.148 134.985C134.49 148.2 149.938 136.933 156 131z"/>
<path style="fill:#9f662d; stroke:none;" d="M153 80L154 81L153 80M148 81L149 82L148 81M145.667 82.3333L146.333 82.6667L145.667 82.3333M154 82L155 83L154 82M143 83L144 84L143 83M140 85L141 86L140 85M149 85L150 86L149 85z"/>
<path style="fill:#f99939; stroke:none;" d="M150 85L140 114L141 114C145.696 107.386 156.031 93.0025 150 85z"/>
<path style="fill:#9f662d; stroke:none;" d="M139 87L140 88L139 87M147 88L148 89L147 88M138 89L139 90L138 89M137 91L138 92L137 91M146 91L147 92L146 91M151.333 92.6667L151.667 93.3333L151.333 92.6667M136 93L137 94L136 93M145 93L146 94L145 93M154.333 93.6667L154.667 94.3333L154.333 93.6667M135 96L136 97L135 96M144 96L145 97L144 96M150 96L151 97L150 96M153.333 97.6667L153.667 98.3333L153.333 97.6667M134.333 98.6667L134.667 99.3333L134.333 98.6667M143.333 99.6667L143.667 100.333L143.333 99.6667M149 99L150 100L149 99M152 100L153 101L152 100M133 101L134 102L133 101M148 101L149 102L148 101M142.333 103.667L142.667 104.333L142.333 103.667M147 103L148 104L147 103M151 103L152 104L151 103M132 104L133 105L132 104M208 104L208 105L211 105L208 104M225 104L225 105L228 106L225 104M242 104L243 105L242 104z"/>
<path style="fill:#f99939; stroke:none;" d="M280 104L281 105L280 104z"/>
<path style="fill:#9f662d; stroke:none;" d="M146 105L147 106L146 105M170.667 105.333L171.333 105.667L170.667 105.333M179.667 105.333L180.333 105.667L179.667 105.333M204 105L205 106L204 105M213 105L214 106L213 105M223 105L224 106L223 105M239 105L240 106L239 105z"/>
<path style="fill:#f99939; stroke:none;" d="M275 105L276 106L275 105z"/>
<path style="fill:#9f662d; stroke:none;" d="M276.667 105.333L277.333 105.667L276.667 105.333M280 105L281 106L280 105M291 105L292 106L291 105M297 105L298 106L297 105M149 106L150 107L149 106M168 106L169 107L168 106M202 106L203 107L202 106M214 106L215 107L214 106M245 106L246 107L245 106M255 106L256 107L255 106z"/>
<path style="fill:#f99939; stroke:none;" d="M259 106L260 107L259 106z"/>
<path style="fill:#9f662d; stroke:none;" d="M271.667 106.333L272.333 106.667L271.667 106.333M289 106L290 107L289 106M298 106L299 107L298 106M131.333 107.667L131.667 108.333L131.333 107.667M141.333 107.667L141.667 108.333L141.333 107.667M145 107L146 108L145 107M200 107L201 108L200 107M215 107L216 108L215 107M220 107L221 108L220 107M270 107L271 108L270 107z"/>
<path style="fill:#f99939; stroke:none;" d="M299 107L300 108L299 107z"/>
<path style="fill:#9f662d; stroke:none;" d="M148 108L149 109L148 108M165 108L166 109L165 108M171 108L168 112L171 108z"/>
<path style="fill:#f99939; stroke:none;" d="M166 123C169.424 121.982 181.775 113.246 174.397 109.176C168.177 105.744 166.07 119.725 166 123z"/>
<path style="fill:#9f662d; stroke:none;" d="M183 108L184 109L183 108M207 108L208 109L207 108z"/>
<path style="fill:#f99939; stroke:none;" d="M208.021 108.851C201.984 110.648 198.884 120.445 198.319 125.999C197.963 129.506 199.668 133.636 203.965 132.338C209.724 130.598 212.693 121.32 212.956 116.001C213.118 112.717 212.781 107.434 208.021 108.851z"/>
<path style="fill:#9f662d; stroke:none;" d="M211 108L212 109L211 108M218 108L219 109L218 108M226 108L227 109L226 108M236 108L237 109L236 108M258 108L259 109L258 108M279 108L280 109L279 108z"/>
<path style="fill:#f99939; stroke:none;" d="M286 108L287 109L286 108z"/>
<path style="fill:#9f662d; stroke:none;" d="M299 108L300 109L299 108M164 109L165 110L164 109M197 109L198 110L197 109M245 109L245 112L246 112L245 109M253 109L254 110L253 109z"/>
<path style="fill:#f99939; stroke:none;" d="M258 109L259 110L258 109z"/>
<path style="fill:#9f662d; stroke:none;" d="M269 109L270 110L269 109M285 109L286 110L285 109M130.333 110.667L130.667 111.333L130.333 110.667M143 110L144 111L143 110M163 110L164 111L163 110M176 110L176 114L177 114L176 110M184 110L184 114L185 114L184 110M196 110L197 111L196 110M213 110L213 117L214 117L213 110M235 110L236 111L235 110M252 110L253 111L252 110M284 110L285 111L284 110M140.333 111.667L140.667 112.333L140.333 111.667M142 111L143 112L142 111M146 111L147 112L146 111M162 111L163 112L162 111M195 111L196 112L195 111M225.333 111.667L225.667 112.333L225.333 111.667M251 111L252 112L251 111M257 111L258 112L257 111z"/>
<path style="fill:#f99939; stroke:none;" d="M268 111L269 112L268 111z"/>
<path style="fill:#9f662d; stroke:none;" d="M278 111L279 112L278 111M283 111L284 112L283 111M145 112L146 113L145 112M161 112L162 113L161 112M194 112L195 113L194 112M203 112L204 113L203 112M234 112L234 117L235 117L234 112M250 112L251 113L250 112M268 112L269 113L268 112M282 112L283 113L282 112M287 112L288 113L287 112M167 113L168 114L167 113M193 113L194 114L193 113M244 113L246 116L244 113M249 113L250 114L249 113M281 113L282 114L281 113M285 113L284 115L285 113z"/>
<path style="fill:#fefefd; stroke:none;" d="M274 140L264 142L264 132C257.269 136.685 244.373 148.368 242 133C221.147 148.346 204.945 163.769 177 164L177 165L306 165L306 132C303.265 133.868 300.777 136.083 298 137.893C296.434 138.914 294.761 139.862 293 140.505C275.982 146.727 287.694 118.972 288 113C276.463 118.38 274.001 128.383 274 140z"/>
<path style="fill:#f99939; stroke:none;" d="M288.333 113.667L288.667 114.333L288.333 113.667z"/>
<path style="fill:#9f662d; stroke:none;" d="M299 113L300 114L299 113M129.333 114.667L129.667 115.333L129.333 114.667M247 114L248 115L247 114M256 114L257 115L256 114M267 114L268 115L267 114M277 114L278 115L277 114M280 114L281 115L280 114z"/>
<path style="fill:#f99939; stroke:none;" d="M299 114L300 115L299 114z"/>
<path style="fill:#9f662d; stroke:none;" d="M143 115L144 116L143 115M159 115L160 116L159 115M201 115L202 116L201 115M224 115L225 116L224 115z"/>
<path style="fill:#f99939; stroke:none;" d="M277 115L278 116L277 115z"/>
<path style="fill:#9f662d; stroke:none;" d="M279 115L280 116L279 115z"/>
<path style="fill:#f99939; stroke:none;" d="M283 115L284 116L283 115z"/>
<path style="fill:#9f662d; stroke:none;" d="M288 115L289 116L288 115M142 116L143 117L142 116M166 116L167 117L166 116M175 116L176 117L175 116M191 116L192 117L191 116M278 116L279 117L278 116z"/>
<path style="fill:#f99939; stroke:none;" d="M282 116L283 117L282 116z"/>
<path style="fill:#9f662d; stroke:none;" d="M158 117L159 118L158 117M182 117L183 118L182 117M200 117L201 118L200 117z"/>
<path style="fill:#f99939; stroke:none;" d="M255 117L256 118L255 117z"/>
<path style="fill:#9f662d; stroke:none;" d="M266 117L267 118L266 117z"/>
<path style="fill:#f99939; stroke:none;" d="M277 117L278 118L277 117M281 117L282 118L281 117z"/>
<path style="fill:#9f662d; stroke:none;" d="M298 117L299 118L298 117M174 118L175 119L174 118M181 118L182 119L181 118M223 118L224 119L223 118M235 118L236 119L235 118M247.333 118.667L247.667 119.333L247.333 118.667M280 118L281 119L280 118M287 118L288 119L287 118M128 119L128 122L129 122L128 119M157 119L158 120L157 119M173 119L174 120L173 119M180 119L181 120L180 119M189 119L190 120L189 119M236 119L237 120L236 119M244.667 119.333L245.333 119.667L244.667 119.333M254 119L255 120L254 119M279 119L280 120L279 119M165 120L165 123L166 123L165 120M179 120L180 121L179 120M199 120L200 121L199 120M212 120L213 121L212 120M237 120L238 121L237 120M241 120L242 121L241 120z"/>
<path style="fill:#f99939; stroke:none;" d="M254 120L255 121L254 120M265 120L266 121L265 120z"/>
<path style="fill:#9f662d; stroke:none;" d="M278 120L279 121L278 120z"/>
<path style="fill:#f99939; stroke:none;" d="M286 120L287 121L286 120z"/>
<path style="fill:#9f662d; stroke:none;" d="M297 120L298 121L297 120M170 121L171 122L170 121M177 121L178 122L177 121M222.333 121.667L222.667 122.333L222.333 121.667M246 121L247 122L246 121M265 121L266 122L265 121M286 121L287 122L286 121M138 122L138 130L139 130L138 122M156.333 122.667L156.667 123.333L156.333 122.667M168 122L169 123L168 122M175 122L176 123L175 122M188 122L189 123L188 122M211.333 122.667L211.667 123.333L211.333 122.667M253 122L254 123L253 122M173 123L174 124L173 123M198.333 123.667L198.667 124.333L198.333 123.667M235 123L236 124L235 123M239 123L240 124L239 123M245 123L246 124L245 123z"/>
<path style="fill:#f99939; stroke:none;" d="M253 123L254 124L253 123z"/>
<path style="fill:#9f662d; stroke:none;" d="M285 123L286 124L285 123z"/>
<path style="fill:#f99939; stroke:none;" d="M296 123L297 124L296 123z"/>
<path style="fill:#9f662d; stroke:none;" d="M171 124L172 125L171 124M234 124L235 125L234 124M275 124L276 125L275 124M168 125L169 126L168 125M187.333 125.667L187.667 126.333L187.333 125.667M210 125L211 126L210 125M221 125L221 128L222 128L221 125M233 125L234 126L233 125M244 125L245 126L244 125z"/>
<path style="fill:#f99939; stroke:none;" d="M264 125L265 126L264 125z"/>
<path style="fill:#9f662d; stroke:none;" d="M295 125L296 126L295 125M252 126L253 127L252 126M264 126L265 127L264 126M284.333 126.667L284.667 127.333L284.333 126.667z"/>
<path style="fill:#f99939; stroke:none;" d="M295 126L296 127L295 126z"/>
<path style="fill:#9f662d; stroke:none;" d="M186 127L187 128L186 127M209 127L210 128L209 127M236 127L237 128L236 127M243 127L244 128L243 127z"/>
<path style="fill:#f99939; stroke:none;" d="M252 127L253 128L252 127z"/>
<path style="fill:#9f662d; stroke:none;" d="M263 127L264 128L263 127M274.333 127.667L274.667 128.333L274.333 127.667M166 128L167 129L166 128M185 128L186 129L185 128M208 128L209 129L208 128M235 128L236 129L235 128M262 128L263 129L262 128M294 128L295 129L294 128M184 129L185 130L184 129M234 129L235 130L234 129M261 129L262 130L261 129z"/>
<path style="fill:#f99939; stroke:none;" d="M274 129L275 130L274 129M283 129L284 130L283 129M294 129L295 130L294 129z"/>
<path style="fill:#9f662d; stroke:none;" d="M303 129L304 130L303 129M167 130L168 131L167 130M183 130L184 131L183 130M207 130L208 131L207 130M211 130L211 135L212 135L211 130M228 130L229 131L228 130M233 130L234 131L233 130M242.333 130.667L242.667 131.333L242.333 130.667z"/>
<path style="fill:#f99939; stroke:none;" d="M252 130L253 131L252 130z"/>
<path style="fill:#9f662d; stroke:none;" d="M260 130L261 131L260 130M283.333 130.667L283.667 131.333L283.333 130.667M302 130L303 131L302 130M150 131L151 132L150 131M155 131L156 132L155 131M182 131L183 132L182 131M198 131L199 132L198 131M206 131L207 132L206 131M221.333 131.667L221.667 132.333L221.333 131.667M227 131L228 132L227 131M232 131L233 132L232 131M252 131L253 132L252 131M301 131L302 132L301 131M305 131L306 132L305 131M139 132L140 133L139 132M149 132L150 133L149 132M154 132L155 133L154 132M156 132L157 133L156 132M186.667 132.333L187.333 132.667L186.667 132.333M199 132L200 133L199 132M205 132L206 133L205 132M209 132L210 133L209 132M226 132L227 133L226 132M231 132L232 133L231 132M253 132L254 133L253 132z"/>
<path style="fill:#f99939; stroke:none;" d="M257 132L258 133L257 132z"/>
<path style="fill:#9f662d; stroke:none;" d="M304 132L305 133L304 132M128.333 133.667L128.667 134.333L128.333 133.667M140 133L141 134L140 133M153 133L154 134L153 133M170 133L171 134L170 133M179 133L180 134L179 133M185 133L186 134L185 133M200 133L200 134L204 134L200 133M208 133L209 134L208 133M223.667 133.333L224.333 133.667L223.667 133.333M230 133L231 134L230 133z"/>
<path style="fill:#f99939; stroke:none;" d="M298 133L299 134L298 133z"/>
<path style="fill:#9f662d; stroke:none;" d="M303 133L304 134L303 133M141 134L142 135L141 134M145 134L146 135L145 134M152 134L153 135L152 134M172 134L172 135L177 135L172 134M184 134L185 135L184 134M207 134L208 135L207 134M229 134L230 135L229 134M295 134L295 135L298 135L295 134M302 134L303 135L302 134M157 135L158 136L157 135M188 135L189 136L188 135M228 135L229 136L228 135M259 135L260 136L259 135M301 135L302 136L301 135M129 136L130 137L129 136M158 136L159 137L158 136M242 136L243 137L242 136M258 136L259 137L258 136M264 136L264 141L265 141L264 136z"/>
<path style="fill:#f99939; stroke:none;" d="M300 136L301 137L300 136z"/>
<path style="fill:#9f662d; stroke:none;" d="M148 137L149 138L148 137M180 137L181 138L180 137M189 137L190 138L189 137M212.333 137.667L212.667 138.333L212.333 137.667z"/>
<path style="fill:#f99939; stroke:none;" d="M242 137L243 138L242 137M257 137L258 138L257 137z"/>
<path style="fill:#9f662d; stroke:none;" d="M283 137L284 138L283 137M203 138L204 139L203 138M224 138L225 139L224 138M255 138L256 139L255 138M297 138L298 139L297 138M145 139L146 140L145 139M161 139L162 140L161 139M177 139L178 140L177 139M202 139L203 140L202 139M213 139L214 140L213 139M223 139L224 140L223 139z"/>
<path style="fill:#f99939; stroke:none;" d="M254 139L255 140L254 139z"/>
<path style="fill:#9f662d; stroke:none;" d="M272.667 139.333L273.333 139.667L272.667 139.333z"/>
<path style="fill:#f99939; stroke:none;" d="M284 139L285 140L284 139z"/>
<path style="fill:#9f662d; stroke:none;" d="M295 139L296 140L295 139M133 140L134 141L133 140M142.667 140.333L143.333 140.667L142.667 140.333M163 140L164 141L163 140M174.667 140.333L175.333 140.667L174.667 140.333M192 140L193 141L192 140M200 140L201 141L200 140M214 140L215 141L214 140M221 140L222 141L221 140M252 140L253 141L252 140M268.667 140.333L269.333 140.667L268.667 140.333z"/>
<path style="fill:#f99939; stroke:none;" d="M285 140L286 141L285 140z"/>
<path style="fill:#9f662d; stroke:none;" d="M293 140L294 141L293 140M135 141L135 142L140 142L135 141M166 141L166 142L172 142L166 141M194 141L194 142L199 142L194 141M216 141L216 142L220 142L216 141z"/>
<path style="fill:#f99939; stroke:none;" d="M246 141L247 142L246 141z"/>
<path style="fill:#9f662d; stroke:none;" d="M247 141L247 142L250 142L247 141z"/>
<path style="fill:#f99939; stroke:none;" d="M264.667 141.333L265.333 141.667L264.667 141.333M287 141L288 142L287 141z"/>
<path style="fill:#9f662d; stroke:none;" d="M288.667 141.333L289.333 141.667L288.667 141.333z"/>
<path style="fill:#f99939; stroke:none;" d="M290 141L291 142L290 141z"/>
</svg>
