<?xml version="1.0" standalone="yes"?>
<svg xmlns="http://www.w3.org/2000/svg" width="224" height="224">
<path style="fill:#feffff; stroke:none;" d="M0 0L0 224L224 224L224 0L0 0z"/>
<path style="fill:#a0b8d7; stroke:none;" d="M99 11L99 12L102 12L99 11z"/>
<path style="fill:#618ac0; stroke:none;" d="M102 11L102 12L105 12L102 11z"/>
<path style="fill:#0155a7; stroke:none;" d="M96 12L91 13L83 15L77 17L74 18L72 19L60 25L55 28L51 31L47 34L35 46L31 51L29 54L27 57L25 60L18 74L17 77L15 83L13 91L12 96L11.0093 111.996L12 128L13 133L15 141L17 147L19 152L23 158L29 156C29 152.908 33.9415 149.887 37 150L41 147L45 144L49 141L53 138L57 135C60.5571 129.072 80.3249 130.701 79 136L84 141L87 145L90 149L93 153L96 157L103 165L106 167L108 168L111 169L126 169L139 159L141 155L142 139L141 136L130 125L119 121L115 120C109.762 120.616 96.9765 118.842 94 114L91 115L87 111L85 112L84 109L76 101L74 98L71 97L72 94C67.4003 88.5578 66.8631 76.8077 71 71L72 68L76 60L78 57L85 50L89 47L89 45L91 46L91 44L93 45L98 43L103 42C106.7 39.1968 112.3 39.1968 116 42L123 44L131 48L142 59L145 63L148 67L154 75L162 81.8333L175 83L179 81L179 78L177 75L180 72L205 73L205 72L199 60L197 57L195 54L193 51L189 46L177 34L173 31L169 28L164 25L150 18L147 17L141 15L133 13L128 12L115 11.1343L96 12z"/>
<path style="fill:#014ca3; stroke:none;" d="M111.667 11.3333L112.333 11.6667L111.667 11.3333z"/>
<path style="fill:#618ac0; stroke:none;" d="M119 11L119 12L122 12L119 11z"/>
<path style="fill:#a0b8d7; stroke:none;" d="M122 11L122 12L125 12L122 11M93.6667 12.3333L94.3333 12.6667L93.6667 12.3333z"/>
<path style="fill:#618ac0; stroke:none;" d="M95 12L96 13L95 12z"/>
<path style="fill:#014ca3; stroke:none;" d="M97 12L97 13L104 13L97 12M120 12L120 13L127 13L120 12z"/>
<path style="fill:#618ac0; stroke:none;" d="M128 12L129 13L128 12z"/>
<path style="fill:#a0b8d7; stroke:none;" d="M129.667 12.3333L130.333 12.6667L129.667 12.3333M88.6667 13.3333L89.3333 13.6667L88.6667 13.3333z"/>
<path style="fill:#618ac0; stroke:none;" d="M90 13L91 14L90 13z"/>
<path style="fill:#014ca3; stroke:none;" d="M92 13L92 14L96 14L92 13M128 13L128 14L132 14L128 13z"/>
<path style="fill:#618ac0; stroke:none;" d="M133 13L134 14L133 13z"/>
<path style="fill:#a0b8d7; stroke:none;" d="M134.667 13.3333L135.333 13.6667L134.667 13.3333M85 14L86 15L85 14z"/>
<path style="fill:#618ac0; stroke:none;" d="M86 14L87 15L86 14z"/>
<path style="fill:#014ca3; stroke:none;" d="M87 14L87 15L91 15L87 14M133 14L133 15L137 15L133 14z"/>
<path style="fill:#618ac0; stroke:none;" d="M137 14L138 15L137 14z"/>
<path style="fill:#a0b8d7; stroke:none;" d="M138 14L139 15L138 14M81 15L82 16L81 15z"/>
<path style="fill:#618ac0; stroke:none;" d="M82 15L83 16L82 15z"/>
<path style="fill:#014ca3; stroke:none;" d="M84.6667 15.3333L85.3333 15.6667L84.6667 15.3333M138.667 15.3333L139.333 15.6667L138.667 15.3333z"/>
<path style="fill:#618ac0; stroke:none;" d="M141 15L142 16L141 15z"/>
<path style="fill:#a0b8d7; stroke:none;" d="M142 15L143 16L142 15M78 16L79 17L78 16z"/>
<path style="fill:#618ac0; stroke:none;" d="M79 16L80 17L79 16z"/>
<path style="fill:#014ca3; stroke:none;" d="M80 16L80 17L83 17L80 16M141 16L141 17L146 18L146 17L141 16z"/>
<path style="fill:#618ac0; stroke:none;" d="M144 16L145 17L144 16z"/>
<path style="fill:#a0b8d7; stroke:none;" d="M145 16L146 17L145 16z"/>
<path style="fill:#618ac0; stroke:none;" d="M76 17L77 18L76 17z"/>
<path style="fill:#014ca3; stroke:none;" d="M78.6667 17.3333L79.3333 17.6667L78.6667 17.3333z"/>
<path style="fill:#618ac0; stroke:none;" d="M147 17L148 18L147 17z"/>
<path style="fill:#a0b8d7; stroke:none;" d="M73 18L74 19L73 18z"/>
<path style="fill:#014ca3; stroke:none;" d="M75.6667 18.3333L76.3333 18.6667L75.6667 18.3333M147.667 18.3333L148.333 18.6667L147.667 18.3333z"/>
<path style="fill:#a0b8d7; stroke:none;" d="M150 18L151 19L150 18z"/>
<path style="fill:#618ac0; stroke:none;" d="M71 19L72 20L71 19z"/>
<path style="fill:#014ca3; stroke:none;" d="M73 19L74 20L73 19M150 19L151 20L150 19z"/>
<path style="fill:#618ac0; stroke:none;" d="M152 19L153 20L152 19z"/>
<path style="fill:#a0b8d7; stroke:none;" d="M68 20L69 21L68 20z"/>
<path style="fill:#618ac0; stroke:none;" d="M69 20L70 21L69 20z"/>
<path style="fill:#014ca3; stroke:none;" d="M70.6667 20.3333L71.3333 20.6667L70.6667 20.3333M152 20L152 21L163 26L163 25L152 20z"/>
<path style="fill:#618ac0; stroke:none;" d="M154 20L155 21L154 20z"/>
<path style="fill:#a0b8d7; stroke:none;" d="M155 20L156 21L155 20z"/>
<path style="fill:#618ac0; stroke:none;" d="M67 21L68 22L67 21z"/>
<path style="fill:#014ca3; stroke:none;" d="M68.6667 21.3333L69.3333 21.6667L68.6667 21.3333z"/>
<path style="fill:#618ac0; stroke:none;" d="M156 21L157 22L156 21M65 22L66 23L65 22z"/>
<path style="fill:#014ca3; stroke:none;" d="M66.6667 22.3333L67.3333 22.6667L66.6667 22.3333z"/>
<path style="fill:#618ac0; stroke:none;" d="M158 22L159 23L158 22M63 23L64 24L63 23z"/>
<path style="fill:#014ca3; stroke:none;" d="M64.6667 23.3333L65.3333 23.6667L64.6667 23.3333z"/>
<path style="fill:#618ac0; stroke:none;" d="M160 23L161 24L160 23z"/>
<path style="fill:#a0b8d7; stroke:none;" d="M61 24L62 25L61 24z"/>
<path style="fill:#014ca3; stroke:none;" d="M62.6667 24.3333L63.3333 24.6667L62.6667 24.3333z"/>
<path style="fill:#a0b8d7; stroke:none;" d="M162 24L163 25L162 24M59 25L60 26L59 25z"/>
<path style="fill:#014ca3; stroke:none;" d="M61 25L62 26L61 25z"/>
<path style="fill:#a0b8d7; stroke:none;" d="M164 25L165 26L164 25z"/>
<path style="fill:#618ac0; stroke:none;" d="M58 26L59 27L58 26z"/>
<path style="fill:#014ca3; stroke:none;" d="M59 26L60 27L59 26M164 26L164 27L168 29L168 28L164 26z"/>
<path style="fill:#618ac0; stroke:none;" d="M165 26L166 27L165 26z"/>
<path style="fill:#a0b8d7; stroke:none;" d="M56 27L57 28L56 27z"/>
<path style="fill:#014ca3; stroke:none;" d="M57.6667 27.3333L58.3333 27.6667L57.6667 27.3333z"/>
<path style="fill:#a0b8d7; stroke:none;" d="M167 27L168 28L167 27z"/>
<path style="fill:#014ca3; stroke:none;" d="M56 28L57 29L56 28z"/>
<path style="fill:#a0b8d7; stroke:none;" d="M53 29L54 30L53 29z"/>
<path style="fill:#014ca3; stroke:none;" d="M54.6667 29.3333L55.3333 29.6667L54.6667 29.3333M168 29L168 30L172 32L168 29z"/>
<path style="fill:#a0b8d7; stroke:none;" d="M170 29L171 30L170 29z"/>
<path style="fill:#618ac0; stroke:none;" d="M52 30L53 31L52 30z"/>
<path style="fill:#014ca3; stroke:none;" d="M53 30L54 31L53 30z"/>
<path style="fill:#618ac0; stroke:none;" d="M171 30L172 31L171 30z"/>
<path style="fill:#014ca3; stroke:none;" d="M52 31L53 32L52 31z"/>
<path style="fill:#a0b8d7; stroke:none;" d="M49 32L50 33L49 32z"/>
<path style="fill:#014ca3; stroke:none;" d="M50 32L51 33L50 32M173 32L176 35L173 32z"/>
<path style="fill:#a0b8d7; stroke:none;" d="M174 32L175 33L174 32z"/>
<path style="fill:#618ac0; stroke:none;" d="M48 33L49 34L48 33z"/>
<path style="fill:#014ca3; stroke:none;" d="M49 33L50 34L49 33z"/>
<path style="fill:#618ac0; stroke:none;" d="M175 33L176 34L175 33z"/>
<path style="fill:#014ca3; stroke:none;" d="M48 34L49 35L48 34M47 35L48 36L47 35M176 35L177 36L176 35z"/>
<path style="fill:#a0b8d7; stroke:none;" d="M44 36L37 44L44 36z"/>
<path style="fill:#014ca3; stroke:none;" d="M45 36L46 37L45 36M178 36L187 45L178 36z"/>
<path style="fill:#a0b8d7; stroke:none;" d="M179 36L180 37L179 36z"/>
<path style="fill:#014ca3; stroke:none;" d="M44 37L45 38L44 37z"/>
<path style="fill:#a0b8d7; stroke:none;" d="M180 37L181 38L180 37z"/>
<path style="fill:#014ca3; stroke:none;" d="M43 38L44 39L43 38z"/>
<path style="fill:#a0b8d7; stroke:none;" d="M181 38L182 39L181 38z"/>
<path style="fill:#014ca3; stroke:none;" d="M42 39L43 40L42 39z"/>
<path style="fill:#a0b8d7; stroke:none;" d="M182 39L183 40L182 39z"/>
<path style="fill:#014ca3; stroke:none;" d="M41 40L42 41L41 40M103 40L103 41L116 41L103 40z"/>
<path style="fill:#a0b8d7; stroke:none;" d="M183 40L184 41L183 40z"/>
<path style="fill:#014ca3; stroke:none;" d="M40 41L41 42L40 41M98 41L98 42L102 42L98 41z"/>
<path style="fill:#618ac0; stroke:none;" d="M103 41L104 42L103 41z"/>
<path style="fill:#a0b8d7; stroke:none;" d="M104 41L104 42L107 42L104 41M111 41L111 42L115 42L111 41z"/>
<path style="fill:#618ac0; stroke:none;" d="M115 41L116 42L115 41z"/>
<path style="fill:#014ca3; stroke:none;" d="M117 41L117 42L120 42L117 41z"/>
<path style="fill:#a0b8d7; stroke:none;" d="M184 41L185 42L184 41z"/>
<path style="fill:#014ca3; stroke:none;" d="M39 42L40 43L39 42M96 42L97 43L96 42z"/>
<path style="fill:#618ac0; stroke:none;" d="M98 42L99 43L98 42z"/>
<path style="fill:#a0b8d7; stroke:none;" d="M99 42L100 43L99 42M118.667 42.3333L119.333 42.6667L118.667 42.3333z"/>
<path style="fill:#618ac0; stroke:none;" d="M120 42L121 43L120 42z"/>
<path style="fill:#014ca3; stroke:none;" d="M121.667 42.3333L122.333 42.6667L121.667 42.3333z"/>
<path style="fill:#a0b8d7; stroke:none;" d="M185 42L186 43L185 42z"/>
<path style="fill:#014ca3; stroke:none;" d="M38 43L39 44L38 43M93.6667 43.3333L94.3333 43.6667L93.6667 43.3333z"/>
<path style="fill:#618ac0; stroke:none;" d="M95 43L96 44L95 43z"/>
<path style="fill:#a0b8d7; stroke:none;" d="M96 43L97 44L96 43M122 43L123 44L122 43z"/>
<path style="fill:#014ca3; stroke:none;" d="M124 43L124 44L131 47L131 46L124 43z"/>
<path style="fill:#a0b8d7; stroke:none;" d="M186 43L187 44L186 43z"/>
<path style="fill:#014ca3; stroke:none;" d="M37 44L38 45L37 44M91 44L92 45L91 44z"/>
<path style="fill:#a0b8d7; stroke:none;" d="M93 44L94 45L93 44z"/>
<path style="fill:#618ac0; stroke:none;" d="M125 44L126 45L125 44z"/>
<path style="fill:#014ca3; stroke:none;" d="M89 45L90 46L89 45z"/>
<path style="fill:#a0b8d7; stroke:none;" d="M91 45L92 46L91 45z"/>
<path style="fill:#618ac0; stroke:none;" d="M127 45L128 46L127 45z"/>
<path style="fill:#014ca3; stroke:none;" d="M87 46L84 48L84 49L87 46z"/>
<path style="fill:#a0b8d7; stroke:none;" d="M89 46L90 47L89 46z"/>
<path style="fill:#618ac0; stroke:none;" d="M129 46L130 47L129 46M34 47L33 49L34 47z"/>
<path style="fill:#014ca3; stroke:none;" d="M35 47L36 48L35 47z"/>
<path style="fill:#618ac0; stroke:none;" d="M87 47L88 48L87 47z"/>
<path style="fill:#a0b8d7; stroke:none;" d="M130 47L131 48L130 47z"/>
<path style="fill:#014ca3; stroke:none;" d="M132 47L135 50L132 47M188 47L192 51L188 47z"/>
<path style="fill:#618ac0; stroke:none;" d="M189 47L190 48L189 47z"/>
<path style="fill:#014ca3; stroke:none;" d="M34 48L35 49L34 48z"/>
<path style="fill:#a0b8d7; stroke:none;" d="M86 48L87 49L86 48z"/>
<path style="fill:#618ac0; stroke:none;" d="M132 48L133 49L132 48M190 48L191 49L190 48z"/>
<path style="fill:#a0b8d7; stroke:none;" d="M32 49L33 50L32 49z"/>
<path style="fill:#014ca3; stroke:none;" d="M33 49L34 50L33 49M83 49L77 56L83 49z"/>
<path style="fill:#a0b8d7; stroke:none;" d="M133 49L134 50L133 49M191 49L192 50L191 49z"/>
<path style="fill:#014ca3; stroke:none;" d="M32 50L33 51L32 50z"/>
<path style="fill:#618ac0; stroke:none;" d="M83 50L84 51L83 50z"/>
<path style="fill:#a0b8d7; stroke:none;" d="M134 50L135 51L134 50z"/>
<path style="fill:#618ac0; stroke:none;" d="M82 51L83 52L82 51z"/>
<path style="fill:#014ca3; stroke:none;" d="M137 51L139 53L137 51z"/>
<path style="fill:#618ac0; stroke:none;" d="M30 52L31 53L30 52z"/>
<path style="fill:#014ca3; stroke:none;" d="M31 52L32 53L31 52z"/>
<path style="fill:#a0b8d7; stroke:none;" d="M81 52L82 53L81 52z"/>
<path style="fill:#014ca3; stroke:none;" d="M192 52L194 54L192 52z"/>
<path style="fill:#618ac0; stroke:none;" d="M193 52L194 53L193 52z"/>
<path style="fill:#a0b8d7; stroke:none;" d="M29 53L30 54L29 53z"/>
<path style="fill:#014ca3; stroke:none;" d="M30 53L31 54L30 53z"/>
<path style="fill:#a0b8d7; stroke:none;" d="M80 53L81 54L80 53M194 53L195 54L194 53z"/>
<path style="fill:#618ac0; stroke:none;" d="M79 54L80 55L79 54z"/>
<path style="fill:#a0b8d7; stroke:none;" d="M104 54L105 55L104 54z"/>
<path style="fill:#618ac0; stroke:none;" d="M105.667 54.3333L106.333 54.6667L105.667 54.3333z"/>
<path style="fill:#0155a7; stroke:none;" d="M102 55L99 56L97 57L87 66L84.1667 88L96 102L99 103L102 104L114 107L122 109L125 110L128 111L133 113L140 117L144 120L148 124L152 126L151 128L155 132L154 135L155 139C159.921 145.495 155.682 160.038 150 165L151 167L148 168C146.559 173.139 140.358 178.429 135 179L130 181C121.507 187.919 108.952 180.683 100 180L100 178L98 179L97 176L88 167L85 163L82 159L79 155L76 151L73 147L72 146L70 145L64 145L61 147L57 150L53 153L49 156L45 159L37 165L32 170L36 179L45 188L54 195L57 197L60 199L72 205L77 207L80 208L87 210L97 212L108 211L127 212L132 211L141 209L147 207L152 205L164 199L167 197L170 195L179 188L188 179L195 170L197 167L205 152L207 147L209 141L211 133L212 128L212.991 112L212 96L211 91L209 83L205 82C204.109 86.7431 192.497 96.1025 188 98L183 93L182 93L173 97C167.702 101.013 162.651 97.412 157 97L157 95L155 96L153 92L148 87L141 78L138 74L135 70L131 65L125 59L102 55z"/>
<path style="fill:#618ac0; stroke:none;" d="M111.667 54.3333L112.333 54.6667L111.667 54.3333z"/>
<path style="fill:#a0b8d7; stroke:none;" d="M113.667 54.3333L114.333 54.6667L113.667 54.3333z"/>
<path style="fill:#618ac0; stroke:none;" d="M28 55L29 56L28 55z"/>
<path style="fill:#014ca3; stroke:none;" d="M29 55L30 56L29 55z"/>
<path style="fill:#618ac0; stroke:none;" d="M78 55L79 56L78 55z"/>
<path style="fill:#a0b8d7; stroke:none;" d="M100 55L101 56L100 55z"/>
<path style="fill:#618ac0; stroke:none;" d="M101 55L102 56L101 55z"/>
<path style="fill:#014ca3; stroke:none;" d="M103 55L103 56L107 56L103 55M112 55L112 56L116 56L112 55z"/>
<path style="fill:#618ac0; stroke:none;" d="M116 55L117 56L116 55z"/>
<path style="fill:#a0b8d7; stroke:none;" d="M117 55L118 56L117 55M139 55L141 57L139 55z"/>
<path style="fill:#014ca3; stroke:none;" d="M140 55L141 56L140 55M194 55L196 57L194 55z"/>
<path style="fill:#618ac0; stroke:none;" d="M195 55L196 56L195 55z"/>
<path style="fill:#a0b8d7; stroke:none;" d="M27 56L28 57L27 56z"/>
<path style="fill:#014ca3; stroke:none;" d="M28 56L29 57L28 56z"/>
<path style="fill:#a0b8d7; stroke:none;" d="M98 56L99 57L98 56z"/>
<path style="fill:#014ca3; stroke:none;" d="M100.667 56.3333L101.333 56.6667L100.667 56.3333M117.667 56.3333L118.333 56.6667L117.667 56.3333z"/>
<path style="fill:#618ac0; stroke:none;" d="M119 56L120 57L119 56z"/>
<path style="fill:#a0b8d7; stroke:none;" d="M120 56L121 57L120 56z"/>
<path style="fill:#014ca3; stroke:none;" d="M141 56L143 58L141 56z"/>
<path style="fill:#a0b8d7; stroke:none;" d="M196 56L197 57L196 56z"/>
<path style="fill:#014ca3; stroke:none;" d="M76 57L75 59L76 57z"/>
<path style="fill:#a0b8d7; stroke:none;" d="M96 57L97 58L96 57z"/>
<path style="fill:#014ca3; stroke:none;" d="M98 57L99 58L98 57M120 57L121 58L120 57z"/>
<path style="fill:#618ac0; stroke:none;" d="M121 57L122 58L121 57z"/>
<path style="fill:#a0b8d7; stroke:none;" d="M122 57L123 58L122 57z"/>
<path style="fill:#618ac0; stroke:none;" d="M141 57L142 58L141 57M26 58L27 59L26 58z"/>
<path style="fill:#014ca3; stroke:none;" d="M27 58L28 59L27 58z"/>
<path style="fill:#a0b8d7; stroke:none;" d="M76 58L77 59L76 58z"/>
<path style="fill:#618ac0; stroke:none;" d="M95 58L96 59L95 58z"/>
<path style="fill:#014ca3; stroke:none;" d="M96 58L97 59L96 58M122 58L124 60L122 58z"/>
<path style="fill:#618ac0; stroke:none;" d="M123 58L124 59L123 58z"/>
<path style="fill:#014ca3; stroke:none;" d="M196 58L198 60L196 58z"/>
<path style="fill:#618ac0; stroke:none;" d="M197 58L198 59L197 58z"/>
<path style="fill:#a0b8d7; stroke:none;" d="M25 59L26 60L25 59z"/>
<path style="fill:#014ca3; stroke:none;" d="M26 59L27 60L26 59z"/>
<path style="fill:#a0b8d7; stroke:none;" d="M93 59L94 60L93 59z"/>
<path style="fill:#014ca3; stroke:none;" d="M94.6667 59.3333L95.3333 59.6667L94.6667 59.3333z"/>
<path style="fill:#a0b8d7; stroke:none;" d="M125 59L127 61L125 59z"/>
<path style="fill:#014ca3; stroke:none;" d="M143 59L146 62L143 59z"/>
<path style="fill:#a0b8d7; stroke:none;" d="M198 59L199 60L198 59z"/>
<path style="fill:#014ca3; stroke:none;" d="M74 60L71 67L72 67L74 60z"/>
<path style="fill:#618ac0; stroke:none;" d="M92 60L89 64L92 60z"/>
<path style="fill:#014ca3; stroke:none;" d="M93 60L94 61L93 60M125 60L126 61L125 60z"/>
<path style="fill:#a0b8d7; stroke:none;" d="M143 60L144 61L143 60M24 61L25 62L24 61z"/>
<path style="fill:#014ca3; stroke:none;" d="M25 61L26 62L25 61z"/>
<path style="fill:#618ac0; stroke:none;" d="M74 61L75 62L74 61z"/>
<path style="fill:#014ca3; stroke:none;" d="M92 61L93 62L92 61M126 61L130 65L126 61z"/>
<path style="fill:#618ac0; stroke:none;" d="M127 61L128 62L127 61M144 61L145 62L144 61z"/>
<path style="fill:#014ca3; stroke:none;" d="M198 61L203 72L204 72L198 61z"/>
<path style="fill:#a0b8d7; stroke:none;" d="M199 61L200 62L199 61z"/>
<path style="fill:#014ca3; stroke:none;" d="M24 62L20 72L21 72L24 62M91 62L92 63L91 62z"/>
<path style="fill:#618ac0; stroke:none;" d="M128 62L129 63L128 62M214 62L215 63L214 62z"/>
<path style="fill:#a0b8d7; stroke:none;" d="M215 62L216 63L215 62z"/>
<path style="fill:#618ac0; stroke:none;" d="M23 63L24 64L23 63M73 63L74 64L73 63z"/>
<path style="fill:#014ca3; stroke:none;" d="M90 63L91 64L90 63z"/>
<path style="fill:#a0b8d7; stroke:none;" d="M129 63L130 64L129 63z"/>
<path style="fill:#014ca3; stroke:none;" d="M146 63L149 66L146 63z"/>
<path style="fill:#618ac0; stroke:none;" d="M200 63L201 64L200 63z"/>
<path style="fill:#a0b8d7; stroke:none;" d="M213 63L214 64L213 63z"/>
<path style="fill:#014ca3; stroke:none;" d="M214 63L214 64L217 65L214 63z"/>
<path style="fill:#a0b8d7; stroke:none;" d="M217.333 63.6667L217.667 64.3333L217.333 63.6667M88 64L87 66L88 64z"/>
<path style="fill:#014ca3; stroke:none;" d="M89 64L90 65L89 64z"/>
<path style="fill:#a0b8d7; stroke:none;" d="M130 64L131 65L130 64M146 64L147 65L146 64z"/>
<path style="fill:#618ac0; stroke:none;" d="M213 64L214 65L213 64z"/>
<path style="fill:#0155a7; stroke:none;" d="M214 64L212 67L213 70L212 72L211 73L209 72L209 74L204 74L204 78L208 75L211 76C214.557 74.0512 217.747 75.9962 221 78L222 74L214 73L217 65L214 64z"/>
<path style="fill:#618ac0; stroke:none;" d="M22 65L23 66L22 65M72 65L73 66L72 65z"/>
<path style="fill:#014ca3; stroke:none;" d="M88 65L89 66L88 65z"/>
<path style="fill:#618ac0; stroke:none;" d="M147 65L148 66L147 65M201 65L202 66L201 65z"/>
<path style="fill:#014ca3; stroke:none;" d="M213.333 65.6667L213.667 66.3333L213.333 65.6667M130 66L133 71L134 71L130 66z"/>
<path style="fill:#618ac0; stroke:none;" d="M131 66L132 67L131 66z"/>
<path style="fill:#a0b8d7; stroke:none;" d="M212 66L213 67L212 66z"/>
<path style="fill:#014ca3; stroke:none;" d="M215.333 66.6667L215.667 67.3333L215.333 66.6667z"/>
<path style="fill:#a0b8d7; stroke:none;" d="M216 66L217 67L216 66z"/>
<path style="fill:#618ac0; stroke:none;" d="M21 67L22 68L21 67M86 67L87 68L86 67z"/>
<path style="fill:#014ca3; stroke:none;" d="M87 67L88 68L87 67z"/>
<path style="fill:#a0b8d7; stroke:none;" d="M132 67L133 68L132 67z"/>
<path style="fill:#014ca3; stroke:none;" d="M149 67L155 74L149 67z"/>
<path style="fill:#618ac0; stroke:none;" d="M202 67L203 68L202 67z"/>
<path style="fill:#014ca3; stroke:none;" d="M70.3333 68.6667L70.6667 69.3333L70.3333 68.6667z"/>
<path style="fill:#a0b8d7; stroke:none;" d="M71 68L72 69L71 68z"/>
<path style="fill:#014ca3; stroke:none;" d="M86 68L84 74L85 74L86 68z"/>
<path style="fill:#a0b8d7; stroke:none;" d="M133 68L134 69L133 68M149 68L150 69L149 68M211 68L212 69L211 68z"/>
<path style="fill:#014ca3; stroke:none;" d="M212.333 68.6667L212.667 69.3333L212.333 68.6667z"/>
<path style="fill:#618ac0; stroke:none;" d="M215 68L216 69L215 68M20 69L21 70L20 69M85 69L86 70L85 69M150 69L151 70L150 69M203 69L204 70L203 69M211 69L212 70L211 69z"/>
<path style="fill:#014ca3; stroke:none;" d="M214 69L215 70L214 69z"/>
<path style="fill:#a0b8d7; stroke:none;" d="M215 69L216 70L215 69M84 70L85 71L84 70z"/>
<path style="fill:#618ac0; stroke:none;" d="M151 70L152 71L151 70z"/>
<path style="fill:#014ca3; stroke:none;" d="M198.667 70.3333L199.333 70.6667L198.667 70.3333z"/>
<path style="fill:#a0b8d7; stroke:none;" d="M19 71L20 72L19 71z"/>
<path style="fill:#014ca3; stroke:none;" d="M69 71L69 76L70 76L69 71z"/>
<path style="fill:#618ac0; stroke:none;" d="M70 71L71 72L70 71M84 71L85 72L84 71z"/>
<path style="fill:#014ca3; stroke:none;" d="M134 71L137 74L134 71z"/>
<path style="fill:#618ac0; stroke:none;" d="M135 71L136 72L135 71z"/>
<path style="fill:#014ca3; stroke:none;" d="M187 71L187 72L196 72L187 71z"/>
<path style="fill:#618ac0; stroke:none;" d="M197 71L197 72L201 72L197 71z"/>
<path style="fill:#014ca3; stroke:none;" d="M201 71L202 72L201 71z"/>
<path style="fill:#a0b8d7; stroke:none;" d="M204 71L205 72L204 71M210 71L211 72L210 71z"/>
<path style="fill:#014ca3; stroke:none;" d="M211 71L212 72L211 71z"/>
<path style="fill:#618ac0; stroke:none;" d="M214 71L215 72L214 71z"/>
<path style="fill:#a0b8d7; stroke:none;" d="M70.3333 72.6667L70.6667 73.3333L70.3333 72.6667M136 72L137 73L136 72M152 72L153 73L152 72z"/>
<path style="fill:#014ca3; stroke:none;" d="M180 72L180 73L183 73L180 72z"/>
<path style="fill:#618ac0; stroke:none;" d="M186 72L186 73L189 73L186 72z"/>
<path style="fill:#a0b8d7; stroke:none;" d="M189 72L189 73L192 73L189 72z"/>
<path style="fill:#014ca3; stroke:none;" d="M202 72L204 77L205 77L204 74L207 75L207 74L202 72z"/>
<path style="fill:#a0b8d7; stroke:none;" d="M208 72L209 73L208 72z"/>
<path style="fill:#014ca3; stroke:none;" d="M210 72L211 73L210 72M214 72L215 73L214 72z"/>
<path style="fill:#a0b8d7; stroke:none;" d="M216 72L217 73L216 72M18 73L19 74L18 73z"/>
<path style="fill:#014ca3; stroke:none;" d="M19 73L20 74L19 73z"/>
<path style="fill:#a0b8d7; stroke:none;" d="M83 73L84 74L83 73z"/>
<path style="fill:#618ac0; stroke:none;" d="M153 73L154 74L153 73z"/>
<path style="fill:#a0b8d7; stroke:none;" d="M180 73L181 74L180 73M202 73L203 74L202 73M205.667 73.3333L206.333 73.6667L205.667 73.3333z"/>
<path style="fill:#014ca3; stroke:none;" d="M208 73L209 74L208 73M216.667 73.3333L217.333 73.6667L216.667 73.3333z"/>
<path style="fill:#618ac0; stroke:none;" d="M218 73L219 74L218 73z"/>
<path style="fill:#a0b8d7; stroke:none;" d="M219 73L220 74L219 73z"/>
<path style="fill:#618ac0; stroke:none;" d="M83 74L84 75L83 74z"/>
<path style="fill:#014ca3; stroke:none;" d="M155 74L158 80L159 80L155 74M211 74L211 75L214 75L211 74M219.667 74.3333L220.333 74.6667L219.667 74.3333z"/>
<path style="fill:#a0b8d7; stroke:none;" d="M222 74L223 75L222 74z"/>
<path style="fill:#014ca3; stroke:none;" d="M18.3333 75.6667L18.6667 76.3333L18.3333 75.6667M137 75L140 78L137 75z"/>
<path style="fill:#618ac0; stroke:none;" d="M138 75L139 76L138 75z"/>
<path style="fill:#014ca3; stroke:none;" d="M177 75L177 78L178 78L177 75z"/>
<path style="fill:#a0b8d7; stroke:none;" d="M178.333 75.6667L178.667 76.3333L178.333 75.6667z"/>
<path style="fill:#618ac0; stroke:none;" d="M203 75L204 76L203 75z"/>
<path style="fill:#014ca3; stroke:none;" d="M207 77L210 76L207 77z"/>
<path style="fill:#a0b8d7; stroke:none;" d="M211 75L212 76L211 75M213 75L214 76L213 75z"/>
<path style="fill:#618ac0; stroke:none;" d="M214 75L215 76L214 75z"/>
<path style="fill:#014ca3; stroke:none;" d="M215.667 75.3333L216.333 75.6667L215.667 75.3333M222 75L221 78L222 78L222 75z"/>
<path style="fill:#618ac0; stroke:none;" d="M17 76L18 77L17 76z"/>
<path style="fill:#014ca3; stroke:none;" d="M83 76L83 80L84 80L83 76z"/>
<path style="fill:#a0b8d7; stroke:none;" d="M139 76L140 77L139 76M155 76L156 77L155 76z"/>
<path style="fill:#618ac0; stroke:none;" d="M208 76L209 77L208 76z"/>
<path style="fill:#a0b8d7; stroke:none;" d="M209 76L210 77L209 76M216 76L217 77L216 76z"/>
<path style="fill:#618ac0; stroke:none;" d="M217 76L218 77L217 76z"/>
<path style="fill:#014ca3; stroke:none;" d="M218.667 76.3333L219.333 76.6667L218.667 76.3333z"/>
<path style="fill:#618ac0; stroke:none;" d="M222 76L223 77L222 76M69.3333 77.6667L69.6667 78.3333L69.3333 77.6667z"/>
<path style="fill:#a0b8d7; stroke:none;" d="M82 77L83 78L82 77z"/>
<path style="fill:#618ac0; stroke:none;" d="M156 77L157 78L156 77M178 77L179 78L178 77z"/>
<path style="fill:#a0b8d7; stroke:none;" d="M207.333 77.6667L207.667 78.3333L207.333 77.6667M219 77L220 78L219 77M222 77L223 78L222 77M16 78L17 79L16 78z"/>
<path style="fill:#014ca3; stroke:none;" d="M17 78L16 83L17 83L17 78M68 78L68 86L69 86L68 78z"/>
<path style="fill:#618ac0; stroke:none;" d="M82 78L82 84L83 84L82 78M157 78L158 79L157 78z"/>
<path style="fill:#a0b8d7; stroke:none;" d="M204 78L205 79L204 78z"/>
<path style="fill:#014ca3; stroke:none;" d="M205 78L207 83L208 83L205 78z"/>
<path style="fill:#618ac0; stroke:none;" d="M16 79L17 80L16 79z"/>
<path style="fill:#a0b8d7; stroke:none;" d="M69 79L69 85L70 85L69 79z"/>
<path style="fill:#014ca3; stroke:none;" d="M140 79L143 82L140 79z"/>
<path style="fill:#618ac0; stroke:none;" d="M141 79L142 80L141 79z"/>
<path style="fill:#014ca3; stroke:none;" d="M178 79L179 80L178 79z"/>
<path style="fill:#0155a7; stroke:none;" d="M205 79L206 80L205 79z"/>
<path style="fill:#618ac0; stroke:none;" d="M207 79L208 80L207 79z"/>
<path style="fill:#a0b8d7; stroke:none;" d="M142 80L143 81L142 80z"/>
<path style="fill:#014ca3; stroke:none;" d="M159 80L160 81L159 80M177 80L175 81L175 82L177 80z"/>
<path style="fill:#a0b8d7; stroke:none;" d="M205 80L206 81L205 80M15 81L16 82L15 81z"/>
<path style="fill:#014ca3; stroke:none;" d="M160 81L160 82L174 83L174 82L160 81z"/>
<path style="fill:#618ac0; stroke:none;" d="M177 81L178 82L177 81M205 81L206 82L205 81z"/>
<path style="fill:#a0b8d7; stroke:none;" d="M208 81L209 82L208 81z"/>
<path style="fill:#618ac0; stroke:none;" d="M15 82L16 83L15 82z"/>
<path style="fill:#014ca3; stroke:none;" d="M83 82L83 86L84 86L83 82M143 82L147 87L143 82z"/>
<path style="fill:#618ac0; stroke:none;" d="M161 82L162 83L161 82z"/>
<path style="fill:#a0b8d7; stroke:none;" d="M175 82L176 83L175 82z"/>
<path style="fill:#618ac0; stroke:none;" d="M208 82L209 83L208 82M144 83L145 84L144 83z"/>
<path style="fill:#a0b8d7; stroke:none;" d="M162 83L163 84L162 83z"/>
<path style="fill:#618ac0; stroke:none;" d="M163 83L164 84L163 83M172 83L173 84L172 83z"/>
<path style="fill:#a0b8d7; stroke:none;" d="M173 83L174 84L173 83z"/>
<path style="fill:#618ac0; stroke:none;" d="M204 83L203 85L204 83z"/>
<path style="fill:#014ca3; stroke:none;" d="M205 83L206 84L205 83M15.3333 84.6667L15.6667 85.3333L15.3333 84.6667z"/>
<path style="fill:#a0b8d7; stroke:none;" d="M82.3333 84.6667L82.6667 85.3333L82.3333 84.6667M145 84L146 85L145 84M165 84L165 85L170 85L165 84z"/>
<path style="fill:#014ca3; stroke:none;" d="M204 84L205 85L204 84M208.333 84.6667L208.667 85.3333L208.333 84.6667z"/>
<path style="fill:#a0b8d7; stroke:none;" d="M14 85L15 86L14 85z"/>
<path style="fill:#618ac0; stroke:none;" d="M69.3333 85.6667L69.6667 86.3333L69.3333 85.6667z"/>
<path style="fill:#a0b8d7; stroke:none;" d="M146 85L147 86L146 85z"/>
<path style="fill:#014ca3; stroke:none;" d="M203 85L204 86L203 85z"/>
<path style="fill:#a0b8d7; stroke:none;" d="M209 85L210 86L209 85z"/>
<path style="fill:#618ac0; stroke:none;" d="M14 86L15 87L14 86z"/>
<path style="fill:#014ca3; stroke:none;" d="M202 86L201 88L202 86z"/>
<path style="fill:#618ac0; stroke:none;" d="M209 86L210 87L209 86z"/>
<path style="fill:#014ca3; stroke:none;" d="M14 87L14 91L15 91L14 87z"/>
<path style="fill:#618ac0; stroke:none;" d="M83 87L84 88L83 87z"/>
<path style="fill:#014ca3; stroke:none;" d="M209 87L209 91L210 91L209 87z"/>
<path style="fill:#a0b8d7; stroke:none;" d="M13.3333 88.6667L13.6667 89.3333L13.3333 88.6667z"/>
<path style="fill:#014ca3; stroke:none;" d="M69 88L69 91L70 91L69 88z"/>
<path style="fill:#a0b8d7; stroke:none;" d="M83 88L84 89L83 88z"/>
<path style="fill:#014ca3; stroke:none;" d="M84 88C85.6359 93.5078 88.7622 97.5504 94 100L94 99L84 88M147 88L152 93L147 88z"/>
<path style="fill:#618ac0; stroke:none;" d="M148 88L149 89L148 88z"/>
<path style="fill:#a0b8d7; stroke:none;" d="M210.333 88.6667L210.667 89.3333L210.333 88.6667M70.3333 89.6667L70.6667 90.3333L70.3333 89.6667z"/>
<path style="fill:#618ac0; stroke:none;" d="M149 89L150 90L149 89M13 90L14 91L13 90M84 90L85 91L84 90M150 90L151 91L150 90z"/>
<path style="fill:#014ca3; stroke:none;" d="M197 90L198 91L197 90z"/>
<path style="fill:#618ac0; stroke:none;" d="M210 90L211 91L210 90M70 91L71 92L70 91M151 91L152 92L151 91z"/>
<path style="fill:#014ca3; stroke:none;" d="M196 91L197 92L196 91M13 92L13 96L14 96L13 92M70.3333 92.6667L70.6667 93.3333L70.3333 92.6667z"/>
<path style="fill:#618ac0; stroke:none;" d="M85 92L86 93L85 92z"/>
<path style="fill:#a0b8d7; stroke:none;" d="M183.667 92.3333L184.333 92.6667L183.667 92.3333M194 92L191 96L194 92z"/>
<path style="fill:#014ca3; stroke:none;" d="M195 92L196 93L195 92M210 92L210 96L211 96L210 92z"/>
<path style="fill:#a0b8d7; stroke:none;" d="M12.3333 93.6667L12.6667 94.3333L12.3333 93.6667M71 93L72 94L71 93z"/>
<path style="fill:#014ca3; stroke:none;" d="M152 93L153 94L152 93z"/>
<path style="fill:#a0b8d7; stroke:none;" d="M154 93L155 94L154 93M181 93L182 94L181 93z"/>
<path style="fill:#014ca3; stroke:none;" d="M183 93L183 94L186 95L183 93z"/>
<path style="fill:#618ac0; stroke:none;" d="M185 93L186 94L185 93z"/>
<path style="fill:#014ca3; stroke:none;" d="M194 93L195 94L194 93z"/>
<path style="fill:#a0b8d7; stroke:none;" d="M211.333 93.6667L211.667 94.3333L211.333 93.6667M86 94L87 95L86 94z"/>
<path style="fill:#014ca3; stroke:none;" d="M154 94L156 96L154 94z"/>
<path style="fill:#618ac0; stroke:none;" d="M155 94L156 95L155 94M179 94L180 95L179 94z"/>
<path style="fill:#014ca3; stroke:none;" d="M180.667 94.3333L181.333 94.6667L180.667 94.3333z"/>
<path style="fill:#a0b8d7; stroke:none;" d="M186 94L187 95L186 94z"/>
<path style="fill:#014ca3; stroke:none;" d="M193 94L194 95L193 94z"/>
<path style="fill:#618ac0; stroke:none;" d="M12 95L13 96L12 95z"/>
<path style="fill:#014ca3; stroke:none;" d="M71 95L73 98L71 95z"/>
<path style="fill:#a0b8d7; stroke:none;" d="M72 95L73 96L72 95z"/>
<path style="fill:#618ac0; stroke:none;" d="M87 95L88 96L87 95z"/>
<path style="fill:#a0b8d7; stroke:none;" d="M157 95L158 96L157 95z"/>
<path style="fill:#618ac0; stroke:none;" d="M177 95L178 96L177 95z"/>
<path style="fill:#014ca3; stroke:none;" d="M178.667 95.3333L179.333 95.6667L178.667 95.3333M192 95L193 96L192 95z"/>
<path style="fill:#618ac0; stroke:none;" d="M211 95L212 96L211 95M72 96L73 97L72 96M88 96L89 97L88 96z"/>
<path style="fill:#014ca3; stroke:none;" d="M157 96L158 97L157 96z"/>
<path style="fill:#a0b8d7; stroke:none;" d="M159 96L160 97L159 96M174 96L175 97L174 96z"/>
<path style="fill:#618ac0; stroke:none;" d="M175 96L176 97L175 96z"/>
<path style="fill:#014ca3; stroke:none;" d="M176.667 96.3333L177.333 96.6667L176.667 96.3333z"/>
<path style="fill:#a0b8d7; stroke:none;" d="M188.667 96.3333L189.333 96.6667L188.667 96.3333z"/>
<path style="fill:#618ac0; stroke:none;" d="M190 96L191 97L190 96z"/>
<path style="fill:#014ca3; stroke:none;" d="M191 96L192 97L191 96M12 97L12 105L13 105L12 97z"/>
<path style="fill:#618ac0; stroke:none;" d="M89 97L90 98L89 97z"/>
<path style="fill:#014ca3; stroke:none;" d="M159 97L159 98L173 99L173 98L159 97z"/>
<path style="fill:#618ac0; stroke:none;" d="M161 97L162 98L161 97z"/>
<path style="fill:#a0b8d7; stroke:none;" d="M162.667 97.3333L163.333 97.6667L162.667 97.3333M170.667 97.3333L171.333 97.6667L170.667 97.3333z"/>
<path style="fill:#618ac0; stroke:none;" d="M172 97L173 98L172 97z"/>
<path style="fill:#014ca3; stroke:none;" d="M174 97L175 98L174 97M188 97L188 98L191 98L188 97M211 97L211 105L212 105L211 97z"/>
<path style="fill:#618ac0; stroke:none;" d="M90 98L91 99L90 98z"/>
<path style="fill:#014ca3; stroke:none;" d="M73 99L74 102L75 102L73 99z"/>
<path style="fill:#a0b8d7; stroke:none;" d="M74 99L75 100L74 99M91 99L92 100L91 99M11 100L11 103L12 103L11 100M93 100L94 101L93 100z"/>
<path style="fill:#014ca3; stroke:none;" d="M95 100L96 101L95 100z"/>
<path style="fill:#a0b8d7; stroke:none;" d="M212.333 100.667L212.667 101.333L212.333 100.667M95 101L96 102L95 101z"/>
<path style="fill:#014ca3; stroke:none;" d="M97.6667 101.333L98.3333 101.667L97.6667 101.333M75 102L79 106L75 102z"/>
<path style="fill:#618ac0; stroke:none;" d="M76 102L77 103L76 102M98 102L99 103L98 102z"/>
<path style="fill:#014ca3; stroke:none;" d="M100.667 102.333L101.333 102.667L100.667 102.333z"/>
<path style="fill:#618ac0; stroke:none;" d="M212 102L212 106L213 106L212 102M11 103L11 106L12 106L11 103z"/>
<path style="fill:#a0b8d7; stroke:none;" d="M77 103L78 104L77 103z"/>
<path style="fill:#618ac0; stroke:none;" d="M101 103L102 104L101 103z"/>
<path style="fill:#014ca3; stroke:none;" d="M103.667 103.333L104.333 103.667L103.667 103.333z"/>
<path style="fill:#a0b8d7; stroke:none;" d="M78 104L79 105L78 104M104 104L105 105L104 104z"/>
<path style="fill:#618ac0; stroke:none;" d="M105 104L106 105L105 104z"/>
<path style="fill:#014ca3; stroke:none;" d="M107.667 104.333L108.333 104.667L107.667 104.333z"/>
<path style="fill:#a0b8d7; stroke:none;" d="M107.667 105.333L108.333 105.667L107.667 105.333z"/>
<path style="fill:#618ac0; stroke:none;" d="M109 105L110 106L109 105z"/>
<path style="fill:#014ca3; stroke:none;" d="M110 105L110 106L114 106L110 105M79 106L80 107L79 106z"/>
<path style="fill:#a0b8d7; stroke:none;" d="M112 106L113 107L112 106z"/>
<path style="fill:#618ac0; stroke:none;" d="M113 106L114 107L113 106z"/>
<path style="fill:#014ca3; stroke:none;" d="M115 106L115 107L122 108L122 107L115 106M80 107L83 110L80 107z"/>
<path style="fill:#a0b8d7; stroke:none;" d="M81 107L82 108L81 107M116 107L117 108L116 107z"/>
<path style="fill:#618ac0; stroke:none;" d="M117 107L118 108L117 107M82 108L83 109L82 108z"/>
<path style="fill:#a0b8d7; stroke:none;" d="M120 108L121 109L120 108z"/>
<path style="fill:#618ac0; stroke:none;" d="M121 108L122 109L121 108z"/>
<path style="fill:#014ca3; stroke:none;" d="M123.667 108.333L124.333 108.667L123.667 108.333z"/>
<path style="fill:#a0b8d7; stroke:none;" d="M84 109L85 110L84 109M123 109L124 110L123 109z"/>
<path style="fill:#618ac0; stroke:none;" d="M124 109L125 110L124 109z"/>
<path style="fill:#014ca3; stroke:none;" d="M126.667 109.333L127.333 109.667L126.667 109.333M84 110L86 112L84 110z"/>
<path style="fill:#618ac0; stroke:none;" d="M85 110L86 111L85 110M127 110L128 111L127 110z"/>
<path style="fill:#014ca3; stroke:none;" d="M129 110L129 111L133 112L133 111L129 110z"/>
<path style="fill:#a0b8d7; stroke:none;" d="M87 111L88 112L87 111M129 111L130 112L129 111z"/>
<path style="fill:#618ac0; stroke:none;" d="M130 111L131 112L130 111z"/>
<path style="fill:#014ca3; stroke:none;" d="M87 112L87 113L90 114L87 112z"/>
<path style="fill:#a0b8d7; stroke:none;" d="M89 112L90 113L89 112z"/>
<path style="fill:#618ac0; stroke:none;" d="M132 112L133 113L132 112z"/>
<path style="fill:#014ca3; stroke:none;" d="M134 112L134 113L140 116L140 115L134 112z"/>
<path style="fill:#618ac0; stroke:none;" d="M91 113L92 114L91 113z"/>
<path style="fill:#a0b8d7; stroke:none;" d="M134 113L135 114L134 113z"/>
<path style="fill:#014ca3; stroke:none;" d="M91.6667 114.333L92.3333 114.667L91.6667 114.333z"/>
<path style="fill:#a0b8d7; stroke:none;" d="M94 114L95 115L94 114z"/>
<path style="fill:#618ac0; stroke:none;" d="M136 114L137 115L136 114z"/>
<path style="fill:#014ca3; stroke:none;" d="M94 115L95 116L94 115z"/>
<path style="fill:#618ac0; stroke:none;" d="M96 115L97 116L96 115z"/>
<path style="fill:#a0b8d7; stroke:none;" d="M97 115L98 116L97 115z"/>
<path style="fill:#618ac0; stroke:none;" d="M138 115L139 116L138 115z"/>
<path style="fill:#014ca3; stroke:none;" d="M96 116L96 117L102 118L102 117L96 116z"/>
<path style="fill:#618ac0; stroke:none;" d="M99 116L100 117L99 116z"/>
<path style="fill:#a0b8d7; stroke:none;" d="M100 116L101 117L100 116M139 116L140 117L139 116z"/>
<path style="fill:#014ca3; stroke:none;" d="M141 116L143 118L141 116z"/>
<path style="fill:#618ac0; stroke:none;" d="M102.667 117.333L103.333 117.667L102.667 117.333z"/>
<path style="fill:#a0b8d7; stroke:none;" d="M104 117L105 118L104 117z"/>
<path style="fill:#618ac0; stroke:none;" d="M141 117L142 118L141 117M11 118L11 121L12 121L11 118z"/>
<path style="fill:#014ca3; stroke:none;" d="M12 118L12 127L13 127L12 118M103 118L103 119L106 119L103 118z"/>
<path style="fill:#618ac0; stroke:none;" d="M106 118L107 119L106 118z"/>
<path style="fill:#a0b8d7; stroke:none;" d="M107.667 118.333L108.333 118.667L107.667 118.333M142 118L143 119L142 118z"/>
<path style="fill:#618ac0; stroke:none;" d="M212 118L212 122L213 122L212 118z"/>
<path style="fill:#014ca3; stroke:none;" d="M107.667 119.333L108.333 119.667L107.667 119.333z"/>
<path style="fill:#618ac0; stroke:none;" d="M110 119L111 120L110 119z"/>
<path style="fill:#a0b8d7; stroke:none;" d="M111.667 119.333L112.333 119.667L111.667 119.333z"/>
<path style="fill:#014ca3; stroke:none;" d="M145 119L149 123L145 119M211 119L211 127L212 127L211 119M111 120L111 121L114 121L111 120z"/>
<path style="fill:#618ac0; stroke:none;" d="M115 120L116 121L115 120z"/>
<path style="fill:#a0b8d7; stroke:none;" d="M116 120L117 121L116 120z"/>
<path style="fill:#618ac0; stroke:none;" d="M145 120L146 121L145 120z"/>
<path style="fill:#a0b8d7; stroke:none;" d="M11 121L11 125L12 125L11 121z"/>
<path style="fill:#014ca3; stroke:none;" d="M115 121L115 122L118 122L115 121z"/>
<path style="fill:#618ac0; stroke:none;" d="M119 121L120 122L119 121z"/>
<path style="fill:#a0b8d7; stroke:none;" d="M120 121L121 122L120 121z"/>
<path style="fill:#618ac0; stroke:none;" d="M146 121L147 122L146 121z"/>
<path style="fill:#014ca3; stroke:none;" d="M119 122L119 123L122 123L119 122z"/>
<path style="fill:#618ac0; stroke:none;" d="M122 122L123 123L122 122z"/>
<path style="fill:#a0b8d7; stroke:none;" d="M123 122L124 123L123 122z"/>
<path style="fill:#618ac0; stroke:none;" d="M147 122L148 123L147 122z"/>
<path style="fill:#a0b8d7; stroke:none;" d="M212.333 122.667L212.667 123.333L212.333 122.667z"/>
<path style="fill:#014ca3; stroke:none;" d="M123 123L123 124L129 126L129 125L123 123z"/>
<path style="fill:#618ac0; stroke:none;" d="M125 123L126 124L125 123z"/>
<path style="fill:#a0b8d7; stroke:none;" d="M126 123L127 124L126 123z"/>
<path style="fill:#014ca3; stroke:none;" d="M149 123L150 124L149 123z"/>
<path style="fill:#a0b8d7; stroke:none;" d="M128 124L129 125L128 124M130 125L131 126L130 125z"/>
<path style="fill:#014ca3; stroke:none;" d="M150 125L152 127L150 125M130 126L130 127L139 136L140 136C138.063 131.014 134.986 127.937 130 126z"/>
<path style="fill:#a0b8d7; stroke:none;" d="M132 126L133 127L132 126z"/>
<path style="fill:#618ac0; stroke:none;" d="M150 126L151 127L150 126M133 127L134 128L133 127M12 128L13 129L12 128z"/>
<path style="fill:#014ca3; stroke:none;" d="M13 128L13 132L14 132L13 128z"/>
<path style="fill:#a0b8d7; stroke:none;" d="M135 128L136 129L135 128M151 128L152 129L151 128z"/>
<path style="fill:#014ca3; stroke:none;" d="M152 128L154 131L152 128M210 128L210 132L211 132L210 128z"/>
<path style="fill:#618ac0; stroke:none;" d="M211 128L212 129L211 128z"/>
<path style="fill:#a0b8d7; stroke:none;" d="M12.3333 129.667L12.6667 130.333L12.3333 129.667M136 129L137 130L136 129M211.333 129.667L211.667 130.333L211.333 129.667M137 130L138 131L137 130M152 130L153 131L152 130z"/>
<path style="fill:#014ca3; stroke:none;" d="M62 131L62 132L67 132L62 131M69 131L69 132L73 132L69 131M57 133L57 134L61 133L57 133z"/>
<path style="fill:#618ac0; stroke:none;" d="M61 132L62 133L61 132z"/>
<path style="fill:#a0b8d7; stroke:none;" d="M62.6667 132.333L63.3333 132.667L62.6667 132.333M71.6667 132.333L72.3333 132.667L71.6667 132.333z"/>
<path style="fill:#618ac0; stroke:none;" d="M73 132L74 133L73 132z"/>
<path style="fill:#014ca3; stroke:none;" d="M74 132L74 133L80 135L80 134L74 132z"/>
<path style="fill:#618ac0; stroke:none;" d="M138 132L139 133L138 132M153 132L154 133L153 132z"/>
<path style="fill:#014ca3; stroke:none;" d="M154.333 132.667L154.667 133.333L154.333 132.667z"/>
<path style="fill:#618ac0; stroke:none;" d="M13 133L14 134L13 133z"/>
<path style="fill:#014ca3; stroke:none;" d="M14 133L14 137L15 137L14 133z"/>
<path style="fill:#a0b8d7; stroke:none;" d="M59 133L60 134L59 133z"/>
<path style="fill:#618ac0; stroke:none;" d="M75 133L76 134L75 133z"/>
<path style="fill:#a0b8d7; stroke:none;" d="M139 133L140 134L139 133M153 133L154 134L153 133z"/>
<path style="fill:#014ca3; stroke:none;" d="M209 133L208 140L209 140L209 133z"/>
<path style="fill:#618ac0; stroke:none;" d="M210 133L211 134L210 133z"/>
<path style="fill:#a0b8d7; stroke:none;" d="M13.3333 134.667L13.6667 135.333L13.3333 134.667z"/>
<path style="fill:#014ca3; stroke:none;" d="M55 134L53 137L55 134z"/>
<path style="fill:#a0b8d7; stroke:none;" d="M57 134L58 135L57 134z"/>
<path style="fill:#618ac0; stroke:none;" d="M77 134L78 135L77 134z"/>
<path style="fill:#a0b8d7; stroke:none;" d="M210 134L211 135L210 134z"/>
<path style="fill:#618ac0; stroke:none;" d="M55 135L56 136L55 135z"/>
<path style="fill:#014ca3; stroke:none;" d="M80 135L85 140L80 135z"/>
<path style="fill:#a0b8d7; stroke:none;" d="M140 135L141 136L140 135z"/>
<path style="fill:#618ac0; stroke:none;" d="M154 135L155 136L154 135z"/>
<path style="fill:#014ca3; stroke:none;" d="M155 135L155 138L156 138L155 135z"/>
<path style="fill:#a0b8d7; stroke:none;" d="M54 136L55 137L54 136z"/>
<path style="fill:#618ac0; stroke:none;" d="M80 136L81 137L80 136z"/>
<path style="fill:#a0b8d7; stroke:none;" d="M154 136L155 137L154 136z"/>
<path style="fill:#618ac0; stroke:none;" d="M14 137L15 138L14 137z"/>
<path style="fill:#014ca3; stroke:none;" d="M51 137L49 140L51 137z"/>
<path style="fill:#a0b8d7; stroke:none;" d="M81 137L82 138L81 137z"/>
<path style="fill:#014ca3; stroke:none;" d="M140.333 137.667L140.667 138.333L140.333 137.667z"/>
<path style="fill:#618ac0; stroke:none;" d="M209 137L210 138L209 137z"/>
<path style="fill:#a0b8d7; stroke:none;" d="M14 138L15 139L14 138z"/>
<path style="fill:#014ca3; stroke:none;" d="M15.3333 138.667L15.6667 139.333L15.3333 138.667z"/>
<path style="fill:#618ac0; stroke:none;" d="M51 138L52 139L51 138M82 138L83 139L82 138M141 138L142 139L141 138z"/>
<path style="fill:#a0b8d7; stroke:none;" d="M209 138L210 139L209 138M50 139L51 140L50 139z"/>
<path style="fill:#618ac0; stroke:none;" d="M83 139L84 140L83 139M155 139L156 140L155 139z"/>
<path style="fill:#014ca3; stroke:none;" d="M156 139L156 152L157 152L156 139M47 140L45 143L47 140M141 140L140 154L141 154L141 140z"/>
<path style="fill:#a0b8d7; stroke:none;" d="M155 140L155 144L156 144L155 140z"/>
<path style="fill:#618ac0; stroke:none;" d="M15 141L16 142L15 141z"/>
<path style="fill:#014ca3; stroke:none;" d="M16 141L17 146L18 146L16 141z"/>
<path style="fill:#618ac0; stroke:none;" d="M47 141L48 142L47 141z"/>
<path style="fill:#014ca3; stroke:none;" d="M85 141L88 144L85 141z"/>
<path style="fill:#a0b8d7; stroke:none;" d="M142.333 141.667L142.667 142.333L142.333 141.667z"/>
<path style="fill:#014ca3; stroke:none;" d="M207 141L206 146L207 146L207 141z"/>
<path style="fill:#618ac0; stroke:none;" d="M208 141L209 142L208 141z"/>
<path style="fill:#a0b8d7; stroke:none;" d="M15 142L16 143L15 142M46 142L47 143L46 142M85 142L86 143L85 142M208 142L209 143L208 142z"/>
<path style="fill:#014ca3; stroke:none;" d="M43 143L41 146L43 143z"/>
<path style="fill:#618ac0; stroke:none;" d="M86 143L87 144L86 143M142 143L142 148L143 148L142 143M16 144L17 145L16 144M43 144L44 145L43 144z"/>
<path style="fill:#a0b8d7; stroke:none;" d="M67 144L68 145L67 144z"/>
<path style="fill:#618ac0; stroke:none;" d="M207 144L208 145L207 144z"/>
<path style="fill:#a0b8d7; stroke:none;" d="M16 145L17 146L16 145M42 145L43 146L42 145M63 145L64 146L63 145z"/>
<path style="fill:#014ca3; stroke:none;" d="M65 145L65 146L69 146L65 145z"/>
<path style="fill:#a0b8d7; stroke:none;" d="M70 145L71 146L70 145z"/>
<path style="fill:#014ca3; stroke:none;" d="M88 145L91 148L88 145z"/>
<path style="fill:#a0b8d7; stroke:none;" d="M207 145L208 146L207 145z"/>
<path style="fill:#014ca3; stroke:none;" d="M39 146L37 149L39 146z"/>
<path style="fill:#618ac0; stroke:none;" d="M62 146L63 147L62 146z"/>
<path style="fill:#014ca3; stroke:none;" d="M63 146L64 147L63 146M70 146L71 147L70 146z"/>
<path style="fill:#a0b8d7; stroke:none;" d="M88 146L89 147L88 146z"/>
<path style="fill:#618ac0; stroke:none;" d="M17 147L18 148L17 147z"/>
<path style="fill:#014ca3; stroke:none;" d="M18.3333 147.667L18.6667 148.333L18.3333 147.667z"/>
<path style="fill:#618ac0; stroke:none;" d="M39 147L40 148L39 147z"/>
<path style="fill:#a0b8d7; stroke:none;" d="M60 147L59 149L60 147z"/>
<path style="fill:#014ca3; stroke:none;" d="M62 147L63 148L62 147M71 147L72 148L71 147z"/>
<path style="fill:#618ac0; stroke:none;" d="M89 147L90 148L89 147z"/>
<path style="fill:#014ca3; stroke:none;" d="M205.333 147.667L205.667 148.333L205.333 147.667z"/>
<path style="fill:#a0b8d7; stroke:none;" d="M206 147L207 148L206 147M38 148L39 149L38 148z"/>
<path style="fill:#014ca3; stroke:none;" d="M60 148L61 149L60 148M72 148L75 151L72 148z"/>
<path style="fill:#618ac0; stroke:none;" d="M73 148L74 149L73 148z"/>
<path style="fill:#a0b8d7; stroke:none;" d="M142.333 148.667L142.667 149.333L142.333 148.667M155 148L155 151L156 151L155 148z"/>
<path style="fill:#618ac0; stroke:none;" d="M18 149L19 150L18 149z"/>
<path style="fill:#014ca3; stroke:none;" d="M35 149L28 154L28 155L35 149z"/>
<path style="fill:#618ac0; stroke:none;" d="M58 149L59 150L58 149z"/>
<path style="fill:#014ca3; stroke:none;" d="M59 149L60 150L59 149z"/>
<path style="fill:#a0b8d7; stroke:none;" d="M74 149L75 150L74 149z"/>
<path style="fill:#014ca3; stroke:none;" d="M91 149L94 152L91 149z"/>
<path style="fill:#618ac0; stroke:none;" d="M205 149L206 150L205 149z"/>
<path style="fill:#a0b8d7; stroke:none;" d="M18 150L19 151L18 150z"/>
<path style="fill:#014ca3; stroke:none;" d="M19 150L20 151L19 150z"/>
<path style="fill:#618ac0; stroke:none;" d="M35 150L36 151L35 150z"/>
<path style="fill:#a0b8d7; stroke:none;" d="M56 150L55 152L56 150z"/>
<path style="fill:#014ca3; stroke:none;" d="M58 150L59 151L58 150z"/>
<path style="fill:#a0b8d7; stroke:none;" d="M75 150L76 151L75 150M91 150L92 151L91 150z"/>
<path style="fill:#014ca3; stroke:none;" d="M204 150L205 151L204 150z"/>
<path style="fill:#a0b8d7; stroke:none;" d="M205 150L206 151L205 150M34 151L35 152L34 151z"/>
<path style="fill:#014ca3; stroke:none;" d="M56 151L57 152L56 151z"/>
<path style="fill:#618ac0; stroke:none;" d="M92 151L93 152L92 151M155.333 151.667L155.667 152.333L155.333 151.667z"/>
<path style="fill:#a0b8d7; stroke:none;" d="M19 152L20 153L19 152z"/>
<path style="fill:#014ca3; stroke:none;" d="M20 152L23 159L28 155L23 158L20 152z"/>
<path style="fill:#618ac0; stroke:none;" d="M32 152L33 153L32 152M54 152L55 153L54 152z"/>
<path style="fill:#014ca3; stroke:none;" d="M55 152L56 153L55 152M75 152L78 155L75 152z"/>
<path style="fill:#618ac0; stroke:none;" d="M76 152L77 153L76 152M141 152L142 153L141 152z"/>
<path style="fill:#014ca3; stroke:none;" d="M203 152L198 163L199 163L203 152z"/>
<path style="fill:#a0b8d7; stroke:none;" d="M204 152L205 153L204 152z"/>
<path style="fill:#618ac0; stroke:none;" d="M31 153L32 154L31 153z"/>
<path style="fill:#a0b8d7; stroke:none;" d="M52 153L51 155L52 153z"/>
<path style="fill:#014ca3; stroke:none;" d="M54 153L55 154L54 153z"/>
<path style="fill:#a0b8d7; stroke:none;" d="M77 153L78 154L77 153z"/>
<path style="fill:#014ca3; stroke:none;" d="M94 153L97 156L94 153z"/>
<path style="fill:#a0b8d7; stroke:none;" d="M141 153L142 154L141 153z"/>
<path style="fill:#618ac0; stroke:none;" d="M20 154L21 155L20 154z"/>
<path style="fill:#a0b8d7; stroke:none;" d="M30 154L31 155L30 154z"/>
<path style="fill:#014ca3; stroke:none;" d="M52 154L53 155L52 154z"/>
<path style="fill:#a0b8d7; stroke:none;" d="M94 154L95 155L94 154z"/>
<path style="fill:#014ca3; stroke:none;" d="M155.333 154.667L155.667 155.333L155.333 154.667z"/>
<path style="fill:#618ac0; stroke:none;" d="M203 154L204 155L203 154M50 155L51 156L50 155z"/>
<path style="fill:#014ca3; stroke:none;" d="M51 155L52 156L51 155z"/>
<path style="fill:#618ac0; stroke:none;" d="M95 155L96 156L95 155z"/>
<path style="fill:#014ca3; stroke:none;" d="M139 155L138 158L139 155z"/>
<path style="fill:#618ac0; stroke:none;" d="M140 155L141 156L140 155z"/>
<path style="fill:#a0b8d7; stroke:none;" d="M154 155L155 156L154 155z"/>
<path style="fill:#618ac0; stroke:none;" d="M21 156L22 157L21 156M27 156L28 157L27 156z"/>
<path style="fill:#a0b8d7; stroke:none;" d="M48 156L47 158L48 156z"/>
<path style="fill:#014ca3; stroke:none;" d="M50 156L51 157L50 156M78 156L81 159L78 156z"/>
<path style="fill:#618ac0; stroke:none;" d="M79 156L80 157L79 156M154 156L155 157L154 156M202 156L203 157L202 156z"/>
<path style="fill:#a0b8d7; stroke:none;" d="M26 157L27 158L26 157z"/>
<path style="fill:#014ca3; stroke:none;" d="M48 157L49 158L48 157z"/>
<path style="fill:#a0b8d7; stroke:none;" d="M80 157L81 158L80 157z"/>
<path style="fill:#014ca3; stroke:none;" d="M97 157L100 162L101 162L97 157z"/>
<path style="fill:#618ac0; stroke:none;" d="M139 157L140 158L139 157z"/>
<path style="fill:#014ca3; stroke:none;" d="M154.333 157.667L154.667 158.333L154.333 157.667z"/>
<path style="fill:#618ac0; stroke:none;" d="M22 158L23 159L22 158M24 158L25 159L24 158M46 158L47 159L46 158z"/>
<path style="fill:#014ca3; stroke:none;" d="M47 158L48 159L47 158z"/>
<path style="fill:#a0b8d7; stroke:none;" d="M97 158L98 159L97 158M153 158L154 159L153 158M201 158L202 159L201 158z"/>
<path style="fill:#618ac0; stroke:none;" d="M23 159L24 160L23 159z"/>
<path style="fill:#a0b8d7; stroke:none;" d="M44 159L43 161L44 159z"/>
<path style="fill:#014ca3; stroke:none;" d="M46 159L47 160L46 159z"/>
<path style="fill:#618ac0; stroke:none;" d="M98 159L99 160L98 159z"/>
<path style="fill:#014ca3; stroke:none;" d="M137 159L126 167L126 168C130.585 166.638 135.801 163.926 137 159z"/>
<path style="fill:#a0b8d7; stroke:none;" d="M138 159L139 160L138 159z"/>
<path style="fill:#618ac0; stroke:none;" d="M153 159L154 160L153 159z"/>
<path style="fill:#014ca3; stroke:none;" d="M44 160L45 161L44 160M81 160L84 163L81 160z"/>
<path style="fill:#618ac0; stroke:none;" d="M82 160L83 161L82 160M99 160L100 161L99 160M137 160L138 161L137 160z"/>
<path style="fill:#014ca3; stroke:none;" d="M153 160L151 165L152 165L153 160z"/>
<path style="fill:#a0b8d7; stroke:none;" d="M200 160L201 161L200 160z"/>
<path style="fill:#618ac0; stroke:none;" d="M42 161L43 162L42 161z"/>
<path style="fill:#014ca3; stroke:none;" d="M43 161L44 162L43 161z"/>
<path style="fill:#a0b8d7; stroke:none;" d="M83 161L84 162L83 161z"/>
<path style="fill:#618ac0; stroke:none;" d="M136 161L137 162L136 161M152 161L153 162L152 161z"/>
<path style="fill:#a0b8d7; stroke:none;" d="M40 162L39 164L40 162z"/>
<path style="fill:#014ca3; stroke:none;" d="M41.6667 162.333L42.3333 162.667L41.6667 162.333z"/>
<path style="fill:#618ac0; stroke:none;" d="M135 162L136 163L135 162z"/>
<path style="fill:#a0b8d7; stroke:none;" d="M199 162L200 163L199 162z"/>
<path style="fill:#014ca3; stroke:none;" d="M40 163L41 164L40 163M102.667 163.333L103.333 163.667L102.667 163.333z"/>
<path style="fill:#618ac0; stroke:none;" d="M134 163L135 164L134 163M151 163L152 164L151 163M198 163L199 164L198 163M38 164L39 165L38 164z"/>
<path style="fill:#014ca3; stroke:none;" d="M39 164L40 165L39 164M84 164L87 167L84 164z"/>
<path style="fill:#618ac0; stroke:none;" d="M85 164L86 165L85 164z"/>
<path style="fill:#014ca3; stroke:none;" d="M104 164L106 166L104 164z"/>
<path style="fill:#618ac0; stroke:none;" d="M133 164L134 165L133 164z"/>
<path style="fill:#014ca3; stroke:none;" d="M197 164L196 166L197 164z"/>
<path style="fill:#a0b8d7; stroke:none;" d="M36 165L35 167L36 165z"/>
<path style="fill:#014ca3; stroke:none;" d="M38 165L39 166L38 165z"/>
<path style="fill:#a0b8d7; stroke:none;" d="M86 165L87 166L86 165z"/>
<path style="fill:#618ac0; stroke:none;" d="M104 165L105 166L104 165z"/>
<path style="fill:#a0b8d7; stroke:none;" d="M132 165L133 166L132 165z"/>
<path style="fill:#618ac0; stroke:none;" d="M197 165L198 166L197 165z"/>
<path style="fill:#014ca3; stroke:none;" d="M36 166L37 167L36 166z"/>
<path style="fill:#a0b8d7; stroke:none;" d="M105 166L106 167L105 166z"/>
<path style="fill:#014ca3; stroke:none;" d="M107 166L108 167L107 166z"/>
<path style="fill:#618ac0; stroke:none;" d="M130 166L131 167L130 166z"/>
<path style="fill:#a0b8d7; stroke:none;" d="M149 166L150 167L149 166z"/>
<path style="fill:#014ca3; stroke:none;" d="M150 166L151 167L150 166z"/>
<path style="fill:#618ac0; stroke:none;" d="M34 167L35 168L34 167z"/>
<path style="fill:#014ca3; stroke:none;" d="M35 167L36 168L35 167z"/>
<path style="fill:#a0b8d7; stroke:none;" d="M107 167L108 168L107 167z"/>
<path style="fill:#014ca3; stroke:none;" d="M109.667 167.333L110.333 167.667L109.667 167.333z"/>
<path style="fill:#618ac0; stroke:none;" d="M128 167L129 168L128 167z"/>
<path style="fill:#a0b8d7; stroke:none;" d="M129 167L130 168L129 167z"/>
<path style="fill:#014ca3; stroke:none;" d="M195 167L194 169L195 167z"/>
<path style="fill:#a0b8d7; stroke:none;" d="M196 167L197 168L196 167M32 168L31 170L32 168z"/>
<path style="fill:#014ca3; stroke:none;" d="M33.6667 168.333L34.3333 168.667L33.6667 168.333M87 168L90 171L87 168z"/>
<path style="fill:#618ac0; stroke:none;" d="M88 168L89 169L88 168z"/>
<path style="fill:#a0b8d7; stroke:none;" d="M109 168L110 169L109 168z"/>
<path style="fill:#618ac0; stroke:none;" d="M110 168L111 169L110 168z"/>
<path style="fill:#014ca3; stroke:none;" d="M112 168L112 169L115 169L112 168M122 168L122 169L125 169L122 168z"/>
<path style="fill:#a0b8d7; stroke:none;" d="M126 168L127 169L126 168z"/>
<path style="fill:#618ac0; stroke:none;" d="M195 168L196 169L195 168z"/>
<path style="fill:#014ca3; stroke:none;" d="M32 169L33 170L32 169z"/>
<path style="fill:#a0b8d7; stroke:none;" d="M89 169L90 170L89 169M113 169L114 170L113 169z"/>
<path style="fill:#618ac0; stroke:none;" d="M114.667 169.333L115.333 169.667L114.667 169.333z"/>
<path style="fill:#014ca3; stroke:none;" d="M117 169L117 170L120 170L117 169z"/>
<path style="fill:#618ac0; stroke:none;" d="M121.667 169.333L122.333 169.667L121.667 169.333z"/>
<path style="fill:#a0b8d7; stroke:none;" d="M123 169L124 170L123 169z"/>
<path style="fill:#618ac0; stroke:none;" d="M147 169L146 171L147 169z"/>
<path style="fill:#014ca3; stroke:none;" d="M148 169L149 170L148 169z"/>
<path style="fill:#0155a7; stroke:none;" d="M30 170L31 171L30 170z"/>
<path style="fill:#014ca3; stroke:none;" d="M31 170L37 178L31 170z"/>
<path style="fill:#a0b8d7; stroke:none;" d="M90 170L91 171L90 170z"/>
<path style="fill:#014ca3; stroke:none;" d="M147 170L148 171L147 170M193 170L187 178L193 170z"/>
<path style="fill:#a0b8d7; stroke:none;" d="M194 170L195 171L194 170z"/>
<path style="fill:#618ac0; stroke:none;" d="M30 171L31 172L30 171z"/>
<path style="fill:#a0b8d7; stroke:none;" d="M145 171L143 174L145 171z"/>
<path style="fill:#014ca3; stroke:none;" d="M146 171L147 172L146 171z"/>
<path style="fill:#618ac0; stroke:none;" d="M193 171L194 172L193 171M31 172L32 173L31 172z"/>
<path style="fill:#014ca3; stroke:none;" d="M91 172L92 173L91 172M145 172L146 173L145 172z"/>
<path style="fill:#618ac0; stroke:none;" d="M192 172L193 173L192 172z"/>
<path style="fill:#014ca3; stroke:none;" d="M144 173L145 174L144 173z"/>
<path style="fill:#a0b8d7; stroke:none;" d="M32 174L33 175L32 174z"/>
<path style="fill:#014ca3; stroke:none;" d="M93 174L96 177L93 174z"/>
<path style="fill:#a0b8d7; stroke:none;" d="M94 174L95 175L94 174z"/>
<path style="fill:#618ac0; stroke:none;" d="M142 174L141 176L142 174z"/>
<path style="fill:#014ca3; stroke:none;" d="M143 174L144 175L143 174z"/>
<path style="fill:#a0b8d7; stroke:none;" d="M191 174L192 175L191 174M33 175L34 176L33 175z"/>
<path style="fill:#618ac0; stroke:none;" d="M95 175L96 176L95 175z"/>
<path style="fill:#014ca3; stroke:none;" d="M142 175L143 176L142 175z"/>
<path style="fill:#a0b8d7; stroke:none;" d="M190 175L191 176L190 175z"/>
<path style="fill:#618ac0; stroke:none;" d="M34 176L35 177L34 176z"/>
<path style="fill:#a0b8d7; stroke:none;" d="M139 176L140 177L139 176z"/>
<path style="fill:#014ca3; stroke:none;" d="M140.667 176.333L141.333 176.667L140.667 176.333z"/>
<path style="fill:#618ac0; stroke:none;" d="M189 176L190 177L189 176M35 177L36 178L35 177z"/>
<path style="fill:#014ca3; stroke:none;" d="M97 177L99 179L97 177z"/>
<path style="fill:#a0b8d7; stroke:none;" d="M98 177L99 178L98 177z"/>
<path style="fill:#618ac0; stroke:none;" d="M138 177L139 178L138 177z"/>
<path style="fill:#014ca3; stroke:none;" d="M139 177L140 178L139 177z"/>
<path style="fill:#618ac0; stroke:none;" d="M188 177L189 178L188 177z"/>
<path style="fill:#a0b8d7; stroke:none;" d="M100 178L101 179L100 178M136 178L137 179L136 178z"/>
<path style="fill:#014ca3; stroke:none;" d="M137.667 178.333L138.333 178.667L137.667 178.333M100 179L101 180L100 179z"/>
<path style="fill:#a0b8d7; stroke:none;" d="M102 179L103 180L102 179M134 179L135 180L134 179z"/>
<path style="fill:#014ca3; stroke:none;" d="M136 179L137 180L136 179M186 179L187 180L186 179M38 180L40 182L38 180M102 180L102 181L106 182L106 181L102 180z"/>
<path style="fill:#a0b8d7; stroke:none;" d="M104 180L105 181L104 180z"/>
<path style="fill:#618ac0; stroke:none;" d="M132 180L133 181L132 180z"/>
<path style="fill:#014ca3; stroke:none;" d="M133.667 180.333L134.333 180.667L133.667 180.333M185 180L180 186L185 180z"/>
<path style="fill:#a0b8d7; stroke:none;" d="M38 181L39 182L38 181z"/>
<path style="fill:#618ac0; stroke:none;" d="M106 181L107 182L106 181z"/>
<path style="fill:#a0b8d7; stroke:none;" d="M107 181L108 182L107 181M128.667 181.333L129.333 181.667L128.667 181.333z"/>
<path style="fill:#014ca3; stroke:none;" d="M131.667 181.333L132.333 181.667L131.667 181.333z"/>
<path style="fill:#a0b8d7; stroke:none;" d="M185 181L186 182L185 181z"/>
<path style="fill:#014ca3; stroke:none;" d="M40 182L44 186L40 182M107 182L107 183L114 184L114 183L107 182z"/>
<path style="fill:#618ac0; stroke:none;" d="M110 182L111 183L110 182z"/>
<path style="fill:#a0b8d7; stroke:none;" d="M111.667 182.333L112.333 182.667L111.667 182.333M124.667 182.333L125.333 182.667L124.667 182.333z"/>
<path style="fill:#618ac0; stroke:none;" d="M126 182L127 183L126 182z"/>
<path style="fill:#014ca3; stroke:none;" d="M127 182L127 183L130 183L127 182z"/>
<path style="fill:#a0b8d7; stroke:none;" d="M184 182L185 183L184 182M40 183L41 184L40 183z"/>
<path style="fill:#014ca3; stroke:none;" d="M122 183L122 184L126 184L122 183z"/>
<path style="fill:#a0b8d7; stroke:none;" d="M183 183L184 184L183 183M41 184L42 185L41 184M182 184L183 185L182 184M42 185L43 186L42 185M181 185L182 186L181 185z"/>
<path style="fill:#014ca3; stroke:none;" d="M179 186L180 187L179 186M46 187L54 194L46 187M177 187L170 194L177 187z"/>
<path style="fill:#618ac0; stroke:none;" d="M46 188L47 189L46 188M177 188L178 189L177 188M47 189L48 190L47 189M176 189L177 190L176 189z"/>
<path style="fill:#a0b8d7; stroke:none;" d="M48 190L49 191L48 190M175 190L176 191L175 190M49 191L50 192L49 191M174 191L175 192L174 191z"/>
<path style="fill:#618ac0; stroke:none;" d="M51 192L52 193L51 192M172 192L173 193L172 192z"/>
<path style="fill:#a0b8d7; stroke:none;" d="M52 193L53 194L52 193z"/>
<path style="fill:#618ac0; stroke:none;" d="M171 193L172 194L171 193z"/>
<path style="fill:#014ca3; stroke:none;" d="M55 194L57 196L55 194M168 194L167 196L168 194z"/>
<path style="fill:#a0b8d7; stroke:none;" d="M170 194L171 195L170 194z"/>
<path style="fill:#618ac0; stroke:none;" d="M55 195L56 196L55 195M168 195L169 196L168 195z"/>
<path style="fill:#a0b8d7; stroke:none;" d="M56 196L57 197L56 196z"/>
<path style="fill:#014ca3; stroke:none;" d="M58 196L60 198L58 196M165 196L164 198L165 196z"/>
<path style="fill:#a0b8d7; stroke:none;" d="M167 196L168 197L167 196z"/>
<path style="fill:#618ac0; stroke:none;" d="M58 197L59 198L58 197M165 197L166 198L165 197z"/>
<path style="fill:#014ca3; stroke:none;" d="M61 198L61 199L72 204L72 203L61 198M162 198L152 203L152 204L163 199L162 198z"/>
<path style="fill:#a0b8d7; stroke:none;" d="M164 198L165 199L164 198M61 199L62 200L61 199M162 199L163 200L162 199M63 200L64 201L63 200z"/>
<path style="fill:#618ac0; stroke:none;" d="M160 200L161 201L160 200M65 201L66 202L65 201M158 201L159 202L158 201M67 202L68 203L67 202M156 202L157 203L156 202z"/>
<path style="fill:#a0b8d7; stroke:none;" d="M69 203L70 204L69 203z"/>
<path style="fill:#618ac0; stroke:none;" d="M154 203L155 204L154 203z"/>
<path style="fill:#a0b8d7; stroke:none;" d="M71 204L72 205L71 204z"/>
<path style="fill:#014ca3; stroke:none;" d="M73 204L73 205L77 206L77 205L73 204M150 204L151 205L150 204z"/>
<path style="fill:#a0b8d7; stroke:none;" d="M152 204L153 205L152 204M73 205L74 206L73 205z"/>
<path style="fill:#618ac0; stroke:none;" d="M74 205L75 206L74 205z"/>
<path style="fill:#014ca3; stroke:none;" d="M147.667 205.333L148.333 205.667L147.667 205.333z"/>
<path style="fill:#618ac0; stroke:none;" d="M149 205L150 206L149 205z"/>
<path style="fill:#a0b8d7; stroke:none;" d="M150 205L151 206L150 205M76 206L77 207L76 206z"/>
<path style="fill:#014ca3; stroke:none;" d="M78.6667 206.333L79.3333 206.667L78.6667 206.333M141 207L141 208L146 207L141 207z"/>
<path style="fill:#a0b8d7; stroke:none;" d="M147 206L148 207L147 206M78.6667 207.333L79.3333 207.667L78.6667 207.333z"/>
<path style="fill:#014ca3; stroke:none;" d="M81.6667 207.333L82.3333 207.667L81.6667 207.333z"/>
<path style="fill:#618ac0; stroke:none;" d="M144 207L145 208L144 207z"/>
<path style="fill:#a0b8d7; stroke:none;" d="M145 207L146 208L145 207M82 208L83 209L82 208z"/>
<path style="fill:#618ac0; stroke:none;" d="M83 208L84 209L83 208z"/>
<path style="fill:#014ca3; stroke:none;" d="M84 208L84 209L87 209L84 208M132 209L132 210L140 209L132 209z"/>
<path style="fill:#618ac0; stroke:none;" d="M141 208L142 209L141 208z"/>
<path style="fill:#a0b8d7; stroke:none;" d="M85 209L86 210L85 209z"/>
<path style="fill:#618ac0; stroke:none;" d="M86 209L87 210L86 209z"/>
<path style="fill:#014ca3; stroke:none;" d="M88 209L88 210L91 210L88 209z"/>
<path style="fill:#618ac0; stroke:none;" d="M137 209L138 210L137 209z"/>
<path style="fill:#a0b8d7; stroke:none;" d="M138 209L139 210L138 209M89.6667 210.333L90.3333 210.667L89.6667 210.333z"/>
<path style="fill:#618ac0; stroke:none;" d="M91 210L92 211L91 210z"/>
<path style="fill:#014ca3; stroke:none;" d="M93 210L93 211L97 211L93 210M127 210L127 211L131 211L127 210z"/>
<path style="fill:#618ac0; stroke:none;" d="M132.667 210.333L133.333 210.667L132.667 210.333z"/>
<path style="fill:#a0b8d7; stroke:none;" d="M134 210L135 211L134 210M94.6667 211.333L95.3333 211.667L94.6667 211.333z"/>
<path style="fill:#618ac0; stroke:none;" d="M96 211L97 212L96 211z"/>
<path style="fill:#014ca3; stroke:none;" d="M98 211L98 212L106 212L98 211M107 211L108 212L107 211M116 211L117 212L116 211M118 211L118 212L126 212L118 211z"/>
<path style="fill:#618ac0; stroke:none;" d="M127 211L128 212L127 211z"/>
<path style="fill:#a0b8d7; stroke:none;" d="M128.667 211.333L129.333 211.667L128.667 211.333M100 212L100 213L104 213L100 212z"/>
<path style="fill:#618ac0; stroke:none;" d="M104 212L104 213L108 213L104 212M115 212L115 213L121 213L115 212z"/>
<path style="fill:#a0b8d7; stroke:none;" d="M121 212L121 213L124 213L121 212z"/>
</svg>
